<svg width="478" height="478" viewBox="0 0 478 478" fill="none" xmlns="http://www.w3.org/2000/svg">
<circle opacity="0.25" cx="239" cy="239" r="224" stroke="white" stroke-width="29"/>
<mask id="path-2-outside-1_1411_3148" maskUnits="userSpaceOnUse" x="16" y="15" width="446" height="447" fill="black">
<rect fill="white" x="16" y="15" width="446" height="447"/>
<path d="M238.5 25C286.804 25 333.666 41.4957 371.364 71.7683C409.062 102.041 435.345 144.284 445.882 191.536C456.419 238.787 450.582 288.227 429.331 331.707C408.08 375.187 372.685 410.113 328.978 430.728C285.271 451.343 235.862 456.418 188.893 445.115C141.924 433.812 100.198 406.806 70.592 368.549C40.9863 330.292 25.2675 283.066 26.0262 234.654C26.785 186.243 43.9759 139.535 74.766 102.229L238.5 238L238.5 25Z"/>
</mask>
<path d="M238.5 25C286.804 25 333.666 41.4957 371.364 71.7683C409.062 102.041 435.345 144.284 445.882 191.536C456.419 238.787 450.582 288.227 429.331 331.707C408.08 375.187 372.685 410.113 328.978 430.728C285.271 451.343 235.862 456.418 188.893 445.115C141.924 433.812 100.198 406.806 70.592 368.549C40.9863 330.292 25.2675 283.066 26.0262 234.654C26.785 186.243 43.9759 139.535 74.766 102.229L238.5 238L238.5 25Z" stroke="url(#paint0_angular_1411_3148)" stroke-width="20" mask="url(#path-2-outside-1_1411_3148)"/>
<ellipse cx="239.184" cy="238" rx="212.5" ry="213" fill="black"/>
<path d="M58.2728 258.232C56.9505 258.232 55.7484 257.931 54.6665 257.33C53.6018 256.729 52.7603 255.879 52.142 254.78C51.541 253.664 51.2405 252.376 51.2405 250.916C51.2405 249.474 51.5496 248.203 52.1678 247.104C52.8032 245.987 53.6619 245.137 54.7438 244.553C55.8257 243.952 57.0364 243.652 58.3759 243.652C59.7154 243.652 60.9261 243.952 62.008 244.553C63.0899 245.137 63.94 245.979 64.5582 247.078C65.1936 248.177 65.5113 249.456 65.5113 250.916C65.5113 252.376 65.185 253.664 64.5324 254.78C63.897 255.879 63.0298 256.729 61.9307 257.33C60.8316 257.931 59.6123 258.232 58.2728 258.232ZM58.2728 256.171C59.1143 256.171 59.9043 255.974 60.6427 255.579C61.3812 255.184 61.9736 254.591 62.4201 253.801C62.8838 253.011 63.1156 252.05 63.1156 250.916C63.1156 249.783 62.8924 248.821 62.4459 248.031C61.9994 247.241 61.4155 246.657 60.6942 246.279C59.973 245.884 59.1916 245.687 58.3501 245.687C57.4915 245.687 56.7015 245.884 55.9802 246.279C55.2761 246.657 54.7094 247.241 54.2801 248.031C53.8508 248.821 53.6361 249.783 53.6361 250.916C53.6361 252.067 53.8422 253.037 54.2543 253.827C54.6837 254.617 55.2504 255.209 55.9545 255.604C56.6586 255.982 57.4314 256.171 58.2728 256.171ZM74.3378 245.816H71.3754V258H69.0313V245.816H67.2024V243.884H69.0313V242.879C69.0313 241.299 69.4349 240.149 70.242 239.427C71.0663 238.689 72.3801 238.32 74.1832 238.32V240.277C73.1528 240.277 72.423 240.483 71.9937 240.896C71.5815 241.291 71.3754 241.952 71.3754 242.879V243.884H74.3378V245.816ZM96.8183 250.401C96.8183 250.847 96.7925 251.32 96.741 251.818H85.4583C85.5442 253.209 86.0164 254.299 86.8751 255.089C87.7509 255.862 88.807 256.248 90.0435 256.248C91.0567 256.248 91.8982 256.017 92.5679 255.553C93.2549 255.072 93.7357 254.437 94.0105 253.647H96.5349C96.1571 255.003 95.4015 256.111 94.2681 256.97C93.1347 257.811 91.7265 258.232 90.0435 258.232C88.704 258.232 87.5019 257.931 86.4372 257.33C85.3896 256.729 84.5653 255.879 83.9642 254.78C83.3632 253.664 83.0626 252.376 83.0626 250.916C83.0626 249.456 83.3546 248.177 83.9385 247.078C84.5224 245.979 85.3381 245.137 86.3856 244.553C87.4504 243.952 88.6697 243.652 90.0435 243.652C91.383 243.652 92.5679 243.944 93.5983 244.528C94.6287 245.112 95.4187 245.919 95.9682 246.949C96.5349 247.962 96.8183 249.113 96.8183 250.401ZM94.3969 249.911C94.3969 249.018 94.1994 248.254 93.8044 247.619C93.4094 246.966 92.8685 246.477 92.1815 246.151C91.5118 245.807 90.7648 245.635 89.9405 245.635C88.7555 245.635 87.7423 246.013 86.9008 246.769C86.0765 247.524 85.6043 248.572 85.484 249.911H94.3969ZM107.28 258L103.931 252.745L100.711 258H98.2638L102.823 250.993L98.2638 243.884H100.917L104.266 249.113L107.46 243.884H109.907L105.373 250.865L109.933 258H107.28ZM125.119 250.401C125.119 250.847 125.093 251.32 125.041 251.818H113.759C113.845 253.209 114.317 254.299 115.175 255.089C116.051 255.862 117.107 256.248 118.344 256.248C119.357 256.248 120.199 256.017 120.868 255.553C121.555 255.072 122.036 254.437 122.311 253.647H124.835C124.457 255.003 123.702 256.111 122.568 256.97C121.435 257.811 120.027 258.232 118.344 258.232C117.004 258.232 115.802 257.931 114.738 257.33C113.69 256.729 112.866 255.879 112.265 254.78C111.664 253.664 111.363 252.376 111.363 250.916C111.363 249.456 111.655 248.177 112.239 247.078C112.823 245.979 113.638 245.137 114.686 244.553C115.751 243.952 116.97 243.652 118.344 243.652C119.683 243.652 120.868 243.944 121.899 244.528C122.929 245.112 123.719 245.919 124.269 246.949C124.835 247.962 125.119 249.113 125.119 250.401ZM122.697 249.911C122.697 249.018 122.5 248.254 122.105 247.619C121.71 246.966 121.169 246.477 120.482 246.151C119.812 245.807 119.065 245.635 118.241 245.635C117.056 245.635 116.043 246.013 115.201 246.769C114.377 247.524 113.905 248.572 113.784 249.911H122.697ZM127.337 250.916C127.337 249.456 127.629 248.186 128.213 247.104C128.797 246.005 129.604 245.155 130.634 244.553C131.682 243.952 132.875 243.652 134.215 243.652C135.949 243.652 137.375 244.073 138.491 244.914C139.624 245.756 140.371 246.923 140.732 248.417H138.208C137.967 247.559 137.495 246.88 136.791 246.382C136.104 245.884 135.245 245.635 134.215 245.635C132.875 245.635 131.793 246.099 130.969 247.026C130.145 247.937 129.733 249.233 129.733 250.916C129.733 252.616 130.145 253.93 130.969 254.857C131.793 255.785 132.875 256.248 134.215 256.248C135.245 256.248 136.104 256.008 136.791 255.527C137.478 255.046 137.95 254.359 138.208 253.466H140.732C140.354 254.909 139.599 256.068 138.465 256.944C137.332 257.803 135.915 258.232 134.215 258.232C132.875 258.232 131.682 257.931 130.634 257.33C129.604 256.729 128.797 255.879 128.213 254.78C127.629 253.681 127.337 252.393 127.337 250.916ZM156.379 243.884V258H154.035V255.913C153.588 256.635 152.961 257.201 152.154 257.614C151.364 258.009 150.489 258.206 149.527 258.206C148.428 258.206 147.44 257.983 146.565 257.536C145.689 257.073 144.993 256.386 144.478 255.476C143.98 254.565 143.731 253.458 143.731 252.153V243.884H146.049V251.843C146.049 253.234 146.401 254.308 147.105 255.063C147.81 255.802 148.771 256.171 149.991 256.171C151.244 256.171 152.232 255.785 152.953 255.012C153.674 254.239 154.035 253.114 154.035 251.637V243.884H156.379ZM163.196 245.816V254.136C163.196 254.823 163.342 255.312 163.634 255.604C163.926 255.879 164.433 256.017 165.154 256.017H166.88V258H164.768C163.462 258 162.483 257.699 161.831 257.098C161.178 256.497 160.852 255.51 160.852 254.136V245.816H159.023V243.884H160.852V240.329H163.196V243.884H166.88V245.816H163.196ZM170.931 241.591C170.484 241.591 170.106 241.437 169.797 241.127C169.488 240.818 169.334 240.441 169.334 239.994C169.334 239.548 169.488 239.17 169.797 238.861C170.106 238.551 170.484 238.397 170.931 238.397C171.36 238.397 171.721 238.551 172.013 238.861C172.322 239.17 172.476 239.548 172.476 239.994C172.476 240.441 172.322 240.818 172.013 241.127C171.721 241.437 171.36 241.591 170.931 241.591ZM172.064 243.884V258H169.72V243.884H172.064ZM181.314 255.836L185.693 243.884H188.192L182.654 258H179.923L174.385 243.884H176.909L181.314 255.836ZM203.379 250.401C203.379 250.847 203.353 251.32 203.301 251.818H192.019C192.104 253.209 192.577 254.299 193.435 255.089C194.311 255.862 195.367 256.248 196.604 256.248C197.617 256.248 198.458 256.017 199.128 255.553C199.815 255.072 200.296 254.437 200.571 253.647H203.095C202.717 255.003 201.962 256.111 200.828 256.97C199.695 257.811 198.287 258.232 196.604 258.232C195.264 258.232 194.062 257.931 192.997 257.33C191.95 256.729 191.126 255.879 190.525 254.78C189.923 253.664 189.623 252.376 189.623 250.916C189.623 249.456 189.915 248.177 190.499 247.078C191.083 245.979 191.898 245.137 192.946 244.553C194.011 243.952 195.23 243.652 196.604 243.652C197.943 243.652 199.128 243.944 200.159 244.528C201.189 245.112 201.979 245.919 202.529 246.949C203.095 247.962 203.379 249.113 203.379 250.401ZM200.957 249.911C200.957 249.018 200.76 248.254 200.365 247.619C199.97 246.966 199.429 246.477 198.742 246.151C198.072 245.807 197.325 245.635 196.501 245.635C195.316 245.635 194.303 246.013 193.461 246.769C192.637 247.524 192.165 248.572 192.044 249.911H200.957ZM211.47 258.232C210.388 258.232 209.418 258.052 208.559 257.691C207.701 257.313 207.022 256.798 206.524 256.145C206.026 255.476 205.751 254.711 205.7 253.853H208.121C208.19 254.557 208.516 255.132 209.1 255.579C209.701 256.025 210.483 256.248 211.444 256.248C212.337 256.248 213.041 256.051 213.557 255.656C214.072 255.261 214.329 254.763 214.329 254.162C214.329 253.544 214.055 253.088 213.505 252.797C212.956 252.487 212.106 252.187 210.955 251.895C209.907 251.62 209.049 251.345 208.379 251.071C207.726 250.779 207.16 250.358 206.679 249.808C206.215 249.242 205.983 248.503 205.983 247.593C205.983 246.872 206.198 246.211 206.627 245.61C207.057 245.009 207.666 244.536 208.456 244.193C209.246 243.832 210.148 243.652 211.161 243.652C212.724 243.652 213.986 244.047 214.948 244.837C215.909 245.627 216.425 246.709 216.493 248.083H214.149C214.098 247.344 213.797 246.752 213.248 246.305C212.715 245.859 211.994 245.635 211.084 245.635C210.242 245.635 209.572 245.816 209.074 246.176C208.576 246.537 208.327 247.009 208.327 247.593C208.327 248.057 208.473 248.443 208.765 248.752C209.074 249.044 209.452 249.285 209.899 249.474C210.362 249.645 210.998 249.843 211.805 250.066C212.818 250.341 213.642 250.616 214.278 250.89C214.913 251.148 215.454 251.543 215.901 252.075C216.364 252.608 216.605 253.303 216.622 254.162C216.622 254.935 216.407 255.63 215.978 256.248C215.549 256.867 214.939 257.356 214.149 257.717C213.376 258.06 212.483 258.232 211.47 258.232ZM229.658 245.816V254.136C229.658 254.823 229.804 255.312 230.096 255.604C230.388 255.879 230.894 256.017 231.616 256.017H233.342V258H231.229C229.924 258 228.945 257.699 228.293 257.098C227.64 256.497 227.314 255.51 227.314 254.136V245.816H225.485V243.884H227.314V240.329H229.658V243.884H233.342V245.816H229.658ZM243.188 243.626C244.253 243.626 245.215 243.858 246.074 244.322C246.932 244.768 247.602 245.446 248.083 246.357C248.581 247.267 248.83 248.374 248.83 249.68V258H246.511V250.015C246.511 248.606 246.159 247.533 245.455 246.795C244.751 246.039 243.789 245.661 242.57 245.661C241.334 245.661 240.346 246.048 239.608 246.82C238.887 247.593 238.526 248.718 238.526 250.195V258H236.182V238.938H238.526V245.893C238.99 245.172 239.625 244.614 240.432 244.219C241.256 243.824 242.175 243.626 243.188 243.626ZM253.87 241.591C253.423 241.591 253.045 241.437 252.736 241.127C252.427 240.818 252.273 240.441 252.273 239.994C252.273 239.548 252.427 239.17 252.736 238.861C253.045 238.551 253.423 238.397 253.87 238.397C254.299 238.397 254.66 238.551 254.952 238.861C255.261 239.17 255.415 239.548 255.415 239.994C255.415 240.441 255.261 240.818 254.952 241.127C254.66 241.437 254.299 241.591 253.87 241.591ZM255.003 243.884V258H252.659V243.884H255.003ZM265.876 243.626C267.593 243.626 268.984 244.15 270.049 245.197C271.114 246.228 271.646 247.722 271.646 249.68V258H269.328V250.015C269.328 248.606 268.976 247.533 268.272 246.795C267.568 246.039 266.606 245.661 265.387 245.661C264.15 245.661 263.163 246.048 262.424 246.82C261.703 247.593 261.342 248.718 261.342 250.195V258H258.998V243.884H261.342V245.893C261.806 245.172 262.433 244.614 263.223 244.219C264.03 243.824 264.914 243.626 265.876 243.626ZM283.358 258L277.819 251.766V258H275.475V238.938H277.819V250.143L283.255 243.884H286.526L279.88 250.916L286.552 258H283.358ZM314.405 243.884L310 258H307.578L304.178 246.795L300.778 258H298.356L293.926 243.884H296.321L299.567 255.733L303.07 243.884H305.466L308.892 255.759L312.086 243.884H314.405ZM322.887 258.232C321.565 258.232 320.363 257.931 319.281 257.33C318.216 256.729 317.375 255.879 316.757 254.78C316.156 253.664 315.855 252.376 315.855 250.916C315.855 249.474 316.164 248.203 316.782 247.104C317.418 245.987 318.277 245.137 319.358 244.553C320.44 243.952 321.651 243.652 322.991 243.652C324.33 243.652 325.541 243.952 326.623 244.553C327.705 245.137 328.555 245.979 329.173 247.078C329.808 248.177 330.126 249.456 330.126 250.916C330.126 252.376 329.8 253.664 329.147 254.78C328.512 255.879 327.644 256.729 326.545 257.33C325.446 257.931 324.227 258.232 322.887 258.232ZM322.887 256.171C323.729 256.171 324.519 255.974 325.257 255.579C325.996 255.184 326.588 254.591 327.035 253.801C327.498 253.011 327.73 252.05 327.73 250.916C327.73 249.783 327.507 248.821 327.061 248.031C326.614 247.241 326.03 246.657 325.309 246.279C324.588 245.884 323.806 245.687 322.965 245.687C322.106 245.687 321.316 245.884 320.595 246.279C319.891 246.657 319.324 247.241 318.895 248.031C318.465 248.821 318.251 249.783 318.251 250.916C318.251 252.067 318.457 253.037 318.869 253.827C319.298 254.617 319.865 255.209 320.569 255.604C321.273 255.982 322.046 256.171 322.887 256.171ZM335.552 246.176C335.964 245.369 336.548 244.742 337.304 244.296C338.077 243.849 339.013 243.626 340.112 243.626V246.048H339.493C336.866 246.048 335.552 247.473 335.552 250.324V258H333.208V243.884H335.552V246.176ZM350.7 258L345.162 251.766V258H342.818V238.938H345.162V250.143L350.597 243.884H353.868L347.222 250.916L353.894 258H350.7ZM358.419 246.485C358.883 245.678 359.569 245.009 360.48 244.476C361.407 243.927 362.48 243.652 363.7 243.652C364.953 243.652 366.087 243.952 367.1 244.553C368.13 245.155 368.937 246.005 369.521 247.104C370.105 248.186 370.397 249.448 370.397 250.89C370.397 252.316 370.105 253.587 369.521 254.703C368.937 255.819 368.13 256.686 367.1 257.304C366.087 257.923 364.953 258.232 363.7 258.232C362.497 258.232 361.433 257.966 360.505 257.433C359.595 256.884 358.9 256.205 358.419 255.398V264.698H356.075V243.884H358.419V246.485ZM368.001 250.89C368.001 249.826 367.787 248.898 367.357 248.108C366.928 247.318 366.344 246.717 365.606 246.305C364.885 245.893 364.086 245.687 363.21 245.687C362.351 245.687 361.553 245.902 360.815 246.331C360.093 246.743 359.509 247.353 359.063 248.16C358.634 248.95 358.419 249.869 358.419 250.916C358.419 251.981 358.634 252.917 359.063 253.724C359.509 254.514 360.093 255.124 360.815 255.553C361.553 255.965 362.351 256.171 363.21 256.171C364.086 256.171 364.885 255.965 365.606 255.553C366.344 255.124 366.928 254.514 367.357 253.724C367.787 252.917 368.001 251.972 368.001 250.89ZM375.827 238.938V258H373.483V238.938H375.827ZM378.946 250.89C378.946 249.448 379.238 248.186 379.822 247.104C380.406 246.005 381.204 245.155 382.218 244.553C383.248 243.952 384.39 243.652 385.644 243.652C386.88 243.652 387.953 243.918 388.863 244.45C389.774 244.983 390.452 245.653 390.899 246.46V243.884H393.268V258H390.899V255.373C390.435 256.197 389.739 256.884 388.812 257.433C387.902 257.966 386.837 258.232 385.618 258.232C384.364 258.232 383.231 257.923 382.218 257.304C381.204 256.686 380.406 255.819 379.822 254.703C379.238 253.587 378.946 252.316 378.946 250.89ZM390.899 250.916C390.899 249.851 390.684 248.924 390.255 248.134C389.825 247.344 389.241 246.743 388.503 246.331C387.782 245.902 386.983 245.687 386.107 245.687C385.231 245.687 384.433 245.893 383.712 246.305C382.99 246.717 382.415 247.318 381.986 248.108C381.556 248.898 381.342 249.826 381.342 250.89C381.342 251.972 381.556 252.917 381.986 253.724C382.415 254.514 382.99 255.124 383.712 255.553C384.433 255.965 385.231 256.171 386.107 256.171C386.983 256.171 387.782 255.965 388.503 255.553C389.241 255.124 389.825 254.514 390.255 253.724C390.684 252.917 390.899 251.981 390.899 250.916ZM396.354 250.916C396.354 249.456 396.646 248.186 397.23 247.104C397.814 246.005 398.621 245.155 399.651 244.553C400.699 243.952 401.892 243.652 403.232 243.652C404.966 243.652 406.392 244.073 407.508 244.914C408.641 245.756 409.388 246.923 409.749 248.417H407.224C406.984 247.559 406.512 246.88 405.808 246.382C405.121 245.884 404.262 245.635 403.232 245.635C401.892 245.635 400.81 246.099 399.986 247.026C399.162 247.937 398.75 249.233 398.75 250.916C398.75 252.616 399.162 253.93 399.986 254.857C400.81 255.785 401.892 256.248 403.232 256.248C404.262 256.248 405.121 256.008 405.808 255.527C406.495 255.046 406.967 254.359 407.224 253.466H409.749C409.371 254.909 408.616 256.068 407.482 256.944C406.349 257.803 404.932 258.232 403.232 258.232C401.892 258.232 400.699 257.931 399.651 257.33C398.621 256.729 397.814 255.879 397.23 254.78C396.646 253.681 396.354 252.393 396.354 250.916ZM425.756 250.401C425.756 250.847 425.731 251.32 425.679 251.818H414.396C414.482 253.209 414.955 254.299 415.813 255.089C416.689 255.862 417.745 256.248 418.982 256.248C419.995 256.248 420.836 256.017 421.506 255.553C422.193 255.072 422.674 254.437 422.949 253.647H425.473C425.095 255.003 424.34 256.111 423.206 256.97C422.073 257.811 420.665 258.232 418.982 258.232C417.642 258.232 416.44 257.931 415.375 257.33C414.328 256.729 413.503 255.879 412.902 254.78C412.301 253.664 412.001 252.376 412.001 250.916C412.001 249.456 412.293 248.177 412.877 247.078C413.461 245.979 414.276 245.137 415.324 244.553C416.389 243.952 417.608 243.652 418.982 243.652C420.321 243.652 421.506 243.944 422.537 244.528C423.567 245.112 424.357 245.919 424.906 246.949C425.473 247.962 425.756 249.113 425.756 250.401ZM423.335 249.911C423.335 249.018 423.138 248.254 422.743 247.619C422.348 246.966 421.807 246.477 421.12 246.151C420.45 245.807 419.703 245.635 418.879 245.635C417.694 245.635 416.681 246.013 415.839 246.769C415.015 247.524 414.542 248.572 414.422 249.911H423.335ZM55.9614 284.816H52.9991V297H50.6549V284.816H48.826V282.884H50.6549V281.879C50.6549 280.299 51.0585 279.149 51.8656 278.427C52.6899 277.689 54.0037 277.32 55.8069 277.32V279.277C54.7765 279.277 54.0466 279.483 53.6173 279.896C53.2051 280.291 52.9991 280.952 52.9991 281.879V282.884H55.9614V284.816ZM57.8187 289.89C57.8187 288.448 58.1107 287.186 58.6946 286.104C59.2784 285.005 60.077 284.155 61.0902 283.553C62.1206 282.952 63.2626 282.652 64.5162 282.652C65.7527 282.652 66.826 282.918 67.7362 283.45C68.6464 283.983 69.3247 284.653 69.7712 285.46V282.884H72.1411V297H69.7712V294.373C69.3075 295.197 68.612 295.884 67.6847 296.433C66.7745 296.966 65.7098 297.232 64.4905 297.232C63.2368 297.232 62.1034 296.923 61.0902 296.304C60.077 295.686 59.2784 294.819 58.6946 293.703C58.1107 292.587 57.8187 291.316 57.8187 289.89ZM69.7712 289.916C69.7712 288.851 69.5565 287.924 69.1272 287.134C68.6979 286.344 68.114 285.743 67.3755 285.331C66.6543 284.902 65.8557 284.687 64.9799 284.687C64.1041 284.687 63.3055 284.893 62.5843 285.305C61.863 285.717 61.2877 286.318 60.8584 287.108C60.429 287.898 60.2144 288.826 60.2144 289.89C60.2144 290.972 60.429 291.917 60.8584 292.724C61.2877 293.514 61.863 294.124 62.5843 294.553C63.3055 294.965 64.1041 295.171 64.9799 295.171C65.8557 295.171 66.6543 294.965 67.3755 294.553C68.114 294.124 68.6979 293.514 69.1272 292.724C69.5565 291.917 69.7712 290.981 69.7712 289.916ZM77.3131 280.591C76.8666 280.591 76.4888 280.437 76.1797 280.127C75.8706 279.818 75.716 279.441 75.716 278.994C75.716 278.548 75.8706 278.17 76.1797 277.861C76.4888 277.551 76.8666 277.397 77.3131 277.397C77.7425 277.397 78.1031 277.551 78.395 277.861C78.7041 278.17 78.8587 278.548 78.8587 278.994C78.8587 279.441 78.7041 279.818 78.395 280.127C78.1031 280.437 77.7425 280.591 77.3131 280.591ZM78.4465 282.884V297H76.1024V282.884H78.4465ZM84.7858 277.938V297H82.4417V277.938H84.7858ZM101.3 282.884V297H98.956V294.913C98.5095 295.635 97.8827 296.201 97.0756 296.614C96.2856 297.009 95.4098 297.206 94.4481 297.206C93.349 297.206 92.3616 296.983 91.4857 296.536C90.6099 296.073 89.9144 295.386 89.3992 294.476C88.9012 293.565 88.6522 292.458 88.6522 291.153V282.884H90.9706V290.843C90.9706 292.234 91.3226 293.308 92.0267 294.063C92.7308 294.802 93.6925 295.171 94.9118 295.171C96.1654 295.171 97.1529 294.785 97.8741 294.012C98.5954 293.239 98.956 292.114 98.956 290.637V282.884H101.3ZM107.602 285.176C108.014 284.369 108.598 283.742 109.354 283.296C110.127 282.849 111.063 282.626 112.162 282.626V285.048H111.543C108.916 285.048 107.602 286.473 107.602 289.324V297H105.258V282.884H107.602V285.176ZM127.747 289.401C127.747 289.847 127.722 290.32 127.67 290.818H116.387C116.473 292.209 116.946 293.299 117.804 294.089C118.68 294.862 119.736 295.248 120.973 295.248C121.986 295.248 122.827 295.017 123.497 294.553C124.184 294.072 124.665 293.437 124.94 292.647H127.464C127.086 294.003 126.331 295.111 125.197 295.97C124.064 296.811 122.656 297.232 120.973 297.232C119.633 297.232 118.431 296.931 117.366 296.33C116.319 295.729 115.494 294.879 114.893 293.78C114.292 292.664 113.992 291.376 113.992 289.916C113.992 288.456 114.284 287.177 114.868 286.078C115.452 284.979 116.267 284.137 117.315 283.553C118.38 282.952 119.599 282.652 120.973 282.652C122.312 282.652 123.497 282.944 124.527 283.528C125.558 284.112 126.348 284.919 126.897 285.949C127.464 286.962 127.747 288.113 127.747 289.401ZM125.326 288.911C125.326 288.018 125.129 287.254 124.734 286.619C124.339 285.966 123.798 285.477 123.111 285.151C122.441 284.807 121.694 284.635 120.87 284.635C119.685 284.635 118.671 285.013 117.83 285.769C117.006 286.524 116.533 287.572 116.413 288.911H125.326ZM135.839 297.232C134.757 297.232 133.787 297.052 132.928 296.691C132.069 296.313 131.391 295.798 130.893 295.145C130.395 294.476 130.12 293.711 130.069 292.853H132.49C132.559 293.557 132.885 294.132 133.469 294.579C134.07 295.025 134.852 295.248 135.813 295.248C136.706 295.248 137.41 295.051 137.926 294.656C138.441 294.261 138.698 293.763 138.698 293.162C138.698 292.544 138.424 292.088 137.874 291.797C137.324 291.487 136.474 291.187 135.324 290.895C134.276 290.62 133.418 290.345 132.748 290.071C132.095 289.779 131.529 289.358 131.048 288.808C130.584 288.242 130.352 287.503 130.352 286.593C130.352 285.872 130.567 285.211 130.996 284.61C131.425 284.009 132.035 283.536 132.825 283.193C133.615 282.832 134.517 282.652 135.53 282.652C137.093 282.652 138.355 283.047 139.317 283.837C140.278 284.627 140.793 285.709 140.862 287.083H138.518C138.466 286.344 138.166 285.752 137.616 285.305C137.084 284.859 136.363 284.635 135.453 284.635C134.611 284.635 133.941 284.816 133.443 285.176C132.945 285.537 132.696 286.009 132.696 286.593C132.696 287.057 132.842 287.443 133.134 287.752C133.443 288.044 133.821 288.285 134.268 288.474C134.731 288.645 135.367 288.843 136.174 289.066C137.187 289.341 138.011 289.616 138.647 289.89C139.282 290.148 139.823 290.543 140.27 291.075C140.733 291.608 140.974 292.303 140.991 293.162C140.991 293.935 140.776 294.63 140.347 295.248C139.918 295.867 139.308 296.356 138.518 296.717C137.745 297.06 136.852 297.232 135.839 297.232ZM153.512 285.176C153.924 284.369 154.508 283.742 155.263 283.296C156.036 282.849 156.972 282.626 158.071 282.626V285.048H157.453C154.825 285.048 153.512 286.473 153.512 289.324V297H151.168V282.884H153.512V285.176ZM173.657 289.401C173.657 289.847 173.631 290.32 173.58 290.818H162.297C162.383 292.209 162.855 293.299 163.714 294.089C164.59 294.862 165.646 295.248 166.882 295.248C167.895 295.248 168.737 295.017 169.407 294.553C170.093 294.072 170.574 293.437 170.849 292.647H173.374C172.996 294.003 172.24 295.111 171.107 295.97C169.973 296.811 168.565 297.232 166.882 297.232C165.543 297.232 164.341 296.931 163.276 296.33C162.228 295.729 161.404 294.879 160.803 293.78C160.202 292.664 159.901 291.376 159.901 289.916C159.901 288.456 160.193 287.177 160.777 286.078C161.361 284.979 162.177 284.137 163.224 283.553C164.289 282.952 165.508 282.652 166.882 282.652C168.222 282.652 169.407 282.944 170.437 283.528C171.467 284.112 172.257 284.919 172.807 285.949C173.374 286.962 173.657 288.113 173.657 289.401ZM171.236 288.911C171.236 288.018 171.038 287.254 170.643 286.619C170.248 285.966 169.707 285.477 169.02 285.151C168.35 284.807 167.603 284.635 166.779 284.635C165.594 284.635 164.581 285.013 163.739 285.769C162.915 286.524 162.443 287.572 162.323 288.911H171.236ZM181.748 297.232C180.667 297.232 179.696 297.052 178.838 296.691C177.979 296.313 177.301 295.798 176.803 295.145C176.305 294.476 176.03 293.711 175.978 292.853H178.4C178.468 293.557 178.795 294.132 179.379 294.579C179.98 295.025 180.761 295.248 181.723 295.248C182.616 295.248 183.32 295.051 183.835 294.656C184.35 294.261 184.608 293.763 184.608 293.162C184.608 292.544 184.333 292.088 183.783 291.797C183.234 291.487 182.384 291.187 181.233 290.895C180.186 290.62 179.327 290.345 178.657 290.071C178.005 289.779 177.438 289.358 176.957 288.808C176.493 288.242 176.262 287.503 176.262 286.593C176.262 285.872 176.476 285.211 176.906 284.61C177.335 284.009 177.945 283.536 178.735 283.193C179.525 282.832 180.426 282.652 181.439 282.652C183.002 282.652 184.264 283.047 185.226 283.837C186.188 284.627 186.703 285.709 186.772 287.083H184.427C184.376 286.344 184.075 285.752 183.526 285.305C182.993 284.859 182.272 284.635 181.362 284.635C180.521 284.635 179.851 284.816 179.353 285.176C178.855 285.537 178.606 286.009 178.606 286.593C178.606 287.057 178.752 287.443 179.044 287.752C179.353 288.044 179.731 288.285 180.177 288.474C180.641 288.645 181.276 288.843 182.083 289.066C183.097 289.341 183.921 289.616 184.556 289.89C185.192 290.148 185.733 290.543 186.179 291.075C186.643 291.608 186.883 292.303 186.9 293.162C186.9 293.935 186.686 294.63 186.256 295.248C185.827 295.867 185.217 296.356 184.427 296.717C183.655 297.06 182.762 297.232 181.748 297.232ZM202.729 282.884V297H200.385V294.913C199.938 295.635 199.311 296.201 198.504 296.614C197.714 297.009 196.838 297.206 195.877 297.206C194.778 297.206 193.79 296.983 192.914 296.536C192.038 296.073 191.343 295.386 190.828 294.476C190.33 293.565 190.081 292.458 190.081 291.153V282.884H192.399V290.843C192.399 292.234 192.751 293.308 193.455 294.063C194.159 294.802 195.121 295.171 196.34 295.171C197.594 295.171 198.581 294.785 199.303 294.012C200.024 293.239 200.385 292.114 200.385 290.637V282.884H202.729ZM209.031 277.938V297H206.687V277.938H209.031ZM215.885 284.816V293.136C215.885 293.823 216.031 294.312 216.323 294.604C216.615 294.879 217.122 295.017 217.843 295.017H219.569V297H217.457C216.151 297 215.172 296.699 214.52 296.098C213.867 295.497 213.541 294.51 213.541 293.136V284.816H211.712V282.884H213.541V279.329H215.885V282.884H219.569V284.816H215.885ZM235.021 284.816H232.059V297H229.714V284.816H227.886V282.884H229.714V281.879C229.714 280.299 230.118 279.149 230.925 278.427C231.749 277.689 233.063 277.32 234.866 277.32V279.277C233.836 279.277 233.106 279.483 232.677 279.896C232.265 280.291 232.059 280.952 232.059 281.879V282.884H235.021V284.816ZM240.098 285.176C240.51 284.369 241.094 283.742 241.85 283.296C242.623 282.849 243.559 282.626 244.658 282.626V285.048H244.039C241.412 285.048 240.098 286.473 240.098 289.324V297H237.754V282.884H240.098V285.176ZM253.52 297.232C252.198 297.232 250.996 296.931 249.914 296.33C248.849 295.729 248.008 294.879 247.389 293.78C246.788 292.664 246.488 291.376 246.488 289.916C246.488 288.474 246.797 287.203 247.415 286.104C248.051 284.987 248.909 284.137 249.991 283.553C251.073 282.952 252.284 282.652 253.623 282.652C254.963 282.652 256.173 282.952 257.255 283.553C258.337 284.137 259.187 284.979 259.806 286.078C260.441 287.177 260.759 288.456 260.759 289.916C260.759 291.376 260.432 292.664 259.78 293.78C259.144 294.879 258.277 295.729 257.178 296.33C256.079 296.931 254.86 297.232 253.52 297.232ZM253.52 295.171C254.362 295.171 255.152 294.974 255.89 294.579C256.628 294.184 257.221 293.591 257.667 292.801C258.131 292.011 258.363 291.05 258.363 289.916C258.363 288.783 258.14 287.821 257.693 287.031C257.247 286.241 256.663 285.657 255.942 285.279C255.22 284.884 254.439 284.687 253.597 284.687C252.739 284.687 251.949 284.884 251.228 285.279C250.523 285.657 249.957 286.241 249.527 287.031C249.098 287.821 248.883 288.783 248.883 289.916C248.883 291.067 249.09 292.037 249.502 292.827C249.931 293.617 250.498 294.209 251.202 294.604C251.906 294.982 252.679 295.171 253.52 295.171ZM280.816 282.626C281.915 282.626 282.894 282.858 283.753 283.322C284.612 283.768 285.29 284.446 285.788 285.357C286.286 286.267 286.535 287.374 286.535 288.68V297H284.217V289.015C284.217 287.606 283.865 286.533 283.16 285.795C282.474 285.039 281.538 284.661 280.353 284.661C279.133 284.661 278.163 285.056 277.442 285.846C276.721 286.619 276.36 287.744 276.36 289.221V297H274.042V289.015C274.042 287.606 273.689 286.533 272.985 285.795C272.298 285.039 271.363 284.661 270.178 284.661C268.958 284.661 267.988 285.056 267.267 285.846C266.545 286.619 266.185 287.744 266.185 289.221V297H263.841V282.884H266.185V284.919C266.649 284.18 267.267 283.614 268.04 283.219C268.83 282.824 269.697 282.626 270.641 282.626C271.826 282.626 272.874 282.892 273.784 283.425C274.694 283.957 275.372 284.738 275.819 285.769C276.214 284.773 276.867 284 277.777 283.45C278.687 282.901 279.7 282.626 280.816 282.626ZM298.458 280.591C298.012 280.591 297.634 280.437 297.325 280.127C297.016 279.818 296.861 279.441 296.861 278.994C296.861 278.548 297.016 278.17 297.325 277.861C297.634 277.551 298.012 277.397 298.458 277.397C298.888 277.397 299.248 277.551 299.54 277.861C299.849 278.17 300.004 278.548 300.004 278.994C300.004 279.441 299.849 279.818 299.54 280.127C299.248 280.437 298.888 280.591 298.458 280.591ZM299.592 282.884V297H297.248V282.884H299.592ZM310.465 282.626C312.182 282.626 313.573 283.15 314.638 284.197C315.703 285.228 316.235 286.722 316.235 288.68V297H313.917V289.015C313.917 287.606 313.565 286.533 312.86 285.795C312.156 285.039 311.195 284.661 309.975 284.661C308.739 284.661 307.751 285.048 307.013 285.82C306.292 286.593 305.931 287.718 305.931 289.195V297H303.587V282.884H305.931V284.893C306.395 284.172 307.022 283.614 307.812 283.219C308.619 282.824 309.503 282.626 310.465 282.626ZM332.944 289.401C332.944 289.847 332.918 290.32 332.867 290.818H321.584C321.67 292.209 322.142 293.299 323.001 294.089C323.877 294.862 324.933 295.248 326.169 295.248C327.182 295.248 328.024 295.017 328.694 294.553C329.381 294.072 329.861 293.437 330.136 292.647H332.661C332.283 294.003 331.527 295.111 330.394 295.97C329.26 296.811 327.852 297.232 326.169 297.232C324.83 297.232 323.628 296.931 322.563 296.33C321.515 295.729 320.691 294.879 320.09 293.78C319.489 292.664 319.188 291.376 319.188 289.916C319.188 288.456 319.48 287.177 320.064 286.078C320.648 284.979 321.464 284.137 322.511 283.553C323.576 282.952 324.795 282.652 326.169 282.652C327.509 282.652 328.694 282.944 329.724 283.528C330.754 284.112 331.544 284.919 332.094 285.949C332.661 286.962 332.944 288.113 332.944 289.401ZM330.523 288.911C330.523 288.018 330.325 287.254 329.93 286.619C329.535 285.966 328.994 285.477 328.307 285.151C327.637 284.807 326.89 284.635 326.066 284.635C324.881 284.635 323.868 285.013 323.026 285.769C322.202 286.524 321.73 287.572 321.61 288.911H330.523ZM341.782 284.816H338.82V297H336.476V284.816H334.647V282.884H336.476V281.879C336.476 280.299 336.88 279.149 337.687 278.427C338.511 277.689 339.825 277.32 341.628 277.32V279.277C340.598 279.277 339.868 279.483 339.438 279.896C339.026 280.291 338.82 280.952 338.82 281.879V282.884H341.782V284.816ZM350.26 284.816H347.298V297H344.954V284.816H343.125V282.884H344.954V281.879C344.954 280.299 345.357 279.149 346.164 278.427C346.989 277.689 348.302 277.32 350.105 277.32V279.277C349.075 279.277 348.345 279.483 347.916 279.896C347.504 280.291 347.298 280.952 347.298 281.879V282.884H350.26V284.816ZM365.873 289.401C365.873 289.847 365.847 290.32 365.796 290.818H354.513C354.599 292.209 355.071 293.299 355.93 294.089C356.806 294.862 357.862 295.248 359.098 295.248C360.111 295.248 360.953 295.017 361.623 294.553C362.31 294.072 362.79 293.437 363.065 292.647H365.59C365.212 294.003 364.456 295.111 363.323 295.97C362.189 296.811 360.781 297.232 359.098 297.232C357.759 297.232 356.557 296.931 355.492 296.33C354.444 295.729 353.62 294.879 353.019 293.78C352.418 292.664 352.117 291.376 352.117 289.916C352.117 288.456 352.409 287.177 352.993 286.078C353.577 284.979 354.393 284.137 355.44 283.553C356.505 282.952 357.724 282.652 359.098 282.652C360.438 282.652 361.623 282.944 362.653 283.528C363.683 284.112 364.473 284.919 365.023 285.949C365.59 286.962 365.873 288.113 365.873 289.401ZM363.452 288.911C363.452 288.018 363.254 287.254 362.859 286.619C362.464 285.966 361.923 285.477 361.236 285.151C360.566 284.807 359.819 284.635 358.995 284.635C357.81 284.635 356.797 285.013 355.955 285.769C355.131 286.524 354.659 287.572 354.539 288.911H363.452ZM368.091 289.916C368.091 288.456 368.383 287.186 368.967 286.104C369.551 285.005 370.358 284.155 371.389 283.553C372.436 282.952 373.63 282.652 374.969 282.652C376.704 282.652 378.129 283.073 379.245 283.914C380.379 284.756 381.126 285.923 381.486 287.417H378.962C378.721 286.559 378.249 285.88 377.545 285.382C376.858 284.884 376 284.635 374.969 284.635C373.63 284.635 372.548 285.099 371.723 286.026C370.899 286.937 370.487 288.233 370.487 289.916C370.487 291.616 370.899 292.93 371.723 293.857C372.548 294.785 373.63 295.248 374.969 295.248C376 295.248 376.858 295.008 377.545 294.527C378.232 294.046 378.704 293.359 378.962 292.466H381.486C381.108 293.909 380.353 295.068 379.219 295.944C378.086 296.803 376.669 297.232 374.969 297.232C373.63 297.232 372.436 296.931 371.389 296.33C370.358 295.729 369.551 294.879 368.967 293.78C368.383 292.681 368.091 291.393 368.091 289.916ZM387.473 284.816V293.136C387.473 293.823 387.619 294.312 387.911 294.604C388.203 294.879 388.71 295.017 389.431 295.017H391.157V297H389.045C387.74 297 386.761 296.699 386.108 296.098C385.456 295.497 385.129 294.51 385.129 293.136V284.816H383.3V282.884H385.129V279.329H387.473V282.884H391.157V284.816H387.473ZM395.208 280.591C394.761 280.591 394.384 280.437 394.075 280.127C393.765 279.818 393.611 279.441 393.611 278.994C393.611 278.548 393.765 278.17 394.075 277.861C394.384 277.551 394.761 277.397 395.208 277.397C395.637 277.397 395.998 277.551 396.29 277.861C396.599 278.17 396.754 278.548 396.754 278.994C396.754 279.441 396.599 279.818 396.29 280.127C395.998 280.437 395.637 280.591 395.208 280.591ZM396.341 282.884V297H393.997V282.884H396.341ZM405.591 294.836L409.971 282.884H412.469L406.931 297H404.2L398.662 282.884H401.187L405.591 294.836ZM427.656 289.401C427.656 289.847 427.63 290.32 427.579 290.818H416.296C416.382 292.209 416.854 293.299 417.713 294.089C418.588 294.862 419.645 295.248 420.881 295.248C421.894 295.248 422.736 295.017 423.405 294.553C424.092 294.072 424.573 293.437 424.848 292.647H427.372C426.995 294.003 426.239 295.111 425.106 295.97C423.972 296.811 422.564 297.232 420.881 297.232C419.542 297.232 418.339 296.931 417.275 296.33C416.227 295.729 415.403 294.879 414.802 293.78C414.201 292.664 413.9 291.376 413.9 289.916C413.9 288.456 414.192 287.177 414.776 286.078C415.36 284.979 416.176 284.137 417.223 283.553C418.288 282.952 419.507 282.652 420.881 282.652C422.221 282.652 423.405 282.944 424.436 283.528C425.466 284.112 426.256 284.919 426.806 285.949C427.372 286.962 427.656 288.113 427.656 289.401ZM425.234 288.911C425.234 288.018 425.037 287.254 424.642 286.619C424.247 285.966 423.706 285.477 423.019 285.151C422.349 284.807 421.602 284.635 420.778 284.635C419.593 284.635 418.58 285.013 417.738 285.769C416.914 286.524 416.442 287.572 416.322 288.911H425.234ZM133.789 328.916C133.789 327.456 134.081 326.186 134.665 325.104C135.249 324.005 136.056 323.155 137.087 322.553C138.134 321.952 139.328 321.652 140.667 321.652C142.402 321.652 143.827 322.073 144.943 322.914C146.077 323.756 146.824 324.923 147.184 326.417H144.66C144.42 325.559 143.947 324.88 143.243 324.382C142.556 323.884 141.698 323.635 140.667 323.635C139.328 323.635 138.246 324.099 137.422 325.026C136.597 325.937 136.185 327.233 136.185 328.916C136.185 330.616 136.597 331.93 137.422 332.857C138.246 333.785 139.328 334.248 140.667 334.248C141.698 334.248 142.556 334.008 143.243 333.527C143.93 333.046 144.402 332.359 144.66 331.466H147.184C146.807 332.909 146.051 334.068 144.918 334.944C143.784 335.803 142.367 336.232 140.667 336.232C139.328 336.232 138.134 335.931 137.087 335.33C136.056 334.729 135.249 333.879 134.665 332.78C134.081 331.681 133.789 330.393 133.789 328.916ZM156.469 336.232C155.146 336.232 153.944 335.931 152.862 335.33C151.798 334.729 150.956 333.879 150.338 332.78C149.737 331.664 149.436 330.376 149.436 328.916C149.436 327.474 149.746 326.203 150.364 325.104C150.999 323.987 151.858 323.137 152.94 322.553C154.022 321.952 155.232 321.652 156.572 321.652C157.911 321.652 159.122 321.952 160.204 322.553C161.286 323.137 162.136 323.979 162.754 325.078C163.39 326.177 163.707 327.456 163.707 328.916C163.707 330.376 163.381 331.664 162.728 332.78C162.093 333.879 161.226 334.729 160.127 335.33C159.028 335.931 157.808 336.232 156.469 336.232ZM156.469 334.171C157.31 334.171 158.1 333.974 158.839 333.579C159.577 333.184 160.17 332.591 160.616 331.801C161.08 331.011 161.312 330.05 161.312 328.916C161.312 327.783 161.088 326.821 160.642 326.031C160.195 325.241 159.611 324.657 158.89 324.279C158.169 323.884 157.388 323.687 156.546 323.687C155.687 323.687 154.897 323.884 154.176 324.279C153.472 324.657 152.905 325.241 152.476 326.031C152.047 326.821 151.832 327.783 151.832 328.916C151.832 330.067 152.038 331.037 152.45 331.827C152.88 332.617 153.446 333.209 154.15 333.604C154.855 333.982 155.627 334.171 156.469 334.171ZM183.765 321.626C184.864 321.626 185.843 321.858 186.702 322.322C187.56 322.768 188.239 323.446 188.737 324.357C189.235 325.267 189.484 326.374 189.484 327.68V336H187.165V328.015C187.165 326.606 186.813 325.533 186.109 324.795C185.422 324.039 184.486 323.661 183.301 323.661C182.082 323.661 181.112 324.056 180.39 324.846C179.669 325.619 179.309 326.744 179.309 328.221V336H176.99V328.015C176.99 326.606 176.638 325.533 175.934 324.795C175.247 324.039 174.311 323.661 173.126 323.661C171.907 323.661 170.937 324.056 170.215 324.846C169.494 325.619 169.133 326.744 169.133 328.221V336H166.789V321.884H169.133V323.919C169.597 323.18 170.215 322.614 170.988 322.219C171.778 321.824 172.645 321.626 173.59 321.626C174.775 321.626 175.822 321.892 176.733 322.425C177.643 322.957 178.321 323.738 178.768 324.769C179.163 323.773 179.815 323 180.725 322.45C181.635 321.901 182.649 321.626 183.765 321.626ZM210.304 321.626C211.403 321.626 212.382 321.858 213.241 322.322C214.1 322.768 214.778 323.446 215.276 324.357C215.774 325.267 216.023 326.374 216.023 327.68V336H213.705V328.015C213.705 326.606 213.353 325.533 212.649 324.795C211.962 324.039 211.026 323.661 209.841 323.661C208.621 323.661 207.651 324.056 206.93 324.846C206.209 325.619 205.848 326.744 205.848 328.221V336H203.53V328.015C203.53 326.606 203.178 325.533 202.473 324.795C201.787 324.039 200.851 323.661 199.666 323.661C198.446 323.661 197.476 324.056 196.755 324.846C196.034 325.619 195.673 326.744 195.673 328.221V336H193.329V321.884H195.673V323.919C196.137 323.18 196.755 322.614 197.528 322.219C198.318 321.824 199.185 321.626 200.129 321.626C201.314 321.626 202.362 321.892 203.272 322.425C204.182 322.957 204.861 323.738 205.307 324.769C205.702 323.773 206.355 323 207.265 322.45C208.175 321.901 209.188 321.626 210.304 321.626ZM232.387 321.884V336H230.043V333.913C229.597 334.635 228.97 335.201 228.163 335.614C227.373 336.009 226.497 336.206 225.535 336.206C224.436 336.206 223.449 335.983 222.573 335.536C221.697 335.073 221.002 334.386 220.486 333.476C219.988 332.565 219.739 331.458 219.739 330.153V321.884H222.058V329.843C222.058 331.234 222.41 332.308 223.114 333.063C223.818 333.802 224.78 334.171 225.999 334.171C227.253 334.171 228.24 333.785 228.961 333.012C229.683 332.239 230.043 331.114 230.043 329.637V321.884H232.387ZM243.223 321.626C244.94 321.626 246.331 322.15 247.396 323.197C248.461 324.228 248.993 325.722 248.993 327.68V336H246.675V328.015C246.675 326.606 246.323 325.533 245.619 324.795C244.915 324.039 243.953 323.661 242.734 323.661C241.497 323.661 240.51 324.048 239.771 324.82C239.05 325.593 238.689 326.718 238.689 328.195V336H236.345V321.884H238.689V323.893C239.153 323.172 239.78 322.614 240.57 322.219C241.377 321.824 242.261 321.626 243.223 321.626ZM254.033 319.591C253.587 319.591 253.209 319.437 252.9 319.127C252.591 318.818 252.436 318.441 252.436 317.994C252.436 317.548 252.591 317.17 252.9 316.861C253.209 316.551 253.587 316.397 254.033 316.397C254.462 316.397 254.823 316.551 255.115 316.861C255.424 317.17 255.579 317.548 255.579 317.994C255.579 318.441 255.424 318.818 255.115 319.127C254.823 319.437 254.462 319.591 254.033 319.591ZM255.167 321.884V336H252.822V321.884H255.167ZM258.286 328.916C258.286 327.456 258.578 326.186 259.162 325.104C259.746 324.005 260.553 323.155 261.583 322.553C262.631 321.952 263.824 321.652 265.164 321.652C266.898 321.652 268.324 322.073 269.44 322.914C270.573 323.756 271.32 324.923 271.681 326.417H269.156C268.916 325.559 268.444 324.88 267.74 324.382C267.053 323.884 266.194 323.635 265.164 323.635C263.824 323.635 262.742 324.099 261.918 325.026C261.094 325.937 260.682 327.233 260.682 328.916C260.682 330.616 261.094 331.93 261.918 332.857C262.742 333.785 263.824 334.248 265.164 334.248C266.194 334.248 267.053 334.008 267.74 333.527C268.427 333.046 268.899 332.359 269.156 331.466H271.681C271.303 332.909 270.547 334.068 269.414 334.944C268.281 335.803 266.864 336.232 265.164 336.232C263.824 336.232 262.631 335.931 261.583 335.33C260.553 334.729 259.746 333.879 259.162 332.78C258.578 331.681 258.286 330.393 258.286 328.916ZM273.933 328.89C273.933 327.448 274.225 326.186 274.809 325.104C275.393 324.005 276.191 323.155 277.204 322.553C278.235 321.952 279.377 321.652 280.63 321.652C281.867 321.652 282.94 321.918 283.85 322.45C284.76 322.983 285.439 323.653 285.885 324.46V321.884H288.255V336H285.885V333.373C285.422 334.197 284.726 334.884 283.799 335.433C282.889 335.966 281.824 336.232 280.605 336.232C279.351 336.232 278.218 335.923 277.204 335.304C276.191 334.686 275.393 333.819 274.809 332.703C274.225 331.587 273.933 330.316 273.933 328.89ZM285.885 328.916C285.885 327.851 285.671 326.924 285.241 326.134C284.812 325.344 284.228 324.743 283.49 324.331C282.768 323.902 281.97 323.687 281.094 323.687C280.218 323.687 279.42 323.893 278.698 324.305C277.977 324.717 277.402 325.318 276.972 326.108C276.543 326.898 276.329 327.826 276.329 328.89C276.329 329.972 276.543 330.917 276.972 331.724C277.402 332.514 277.977 333.124 278.698 333.553C279.42 333.965 280.218 334.171 281.094 334.171C281.97 334.171 282.768 333.965 283.49 333.553C284.228 333.124 284.812 332.514 285.241 331.724C285.671 330.917 285.885 329.981 285.885 328.916ZM295.076 323.816V332.136C295.076 332.823 295.222 333.312 295.514 333.604C295.806 333.879 296.312 334.017 297.034 334.017H298.759V336H296.647C295.342 336 294.363 335.699 293.711 335.098C293.058 334.497 292.732 333.51 292.732 332.136V323.816H290.903V321.884H292.732V318.329H295.076V321.884H298.759V323.816H295.076ZM302.81 319.591C302.364 319.591 301.986 319.437 301.677 319.127C301.368 318.818 301.213 318.441 301.213 317.994C301.213 317.548 301.368 317.17 301.677 316.861C301.986 316.551 302.364 316.397 302.81 316.397C303.24 316.397 303.6 316.551 303.892 316.861C304.201 317.17 304.356 317.548 304.356 317.994C304.356 318.441 304.201 318.818 303.892 319.127C303.6 319.437 303.24 319.591 302.81 319.591ZM303.944 321.884V336H301.6V321.884H303.944ZM314.096 336.232C312.773 336.232 311.571 335.931 310.489 335.33C309.424 334.729 308.583 333.879 307.965 332.78C307.364 331.664 307.063 330.376 307.063 328.916C307.063 327.474 307.372 326.203 307.99 325.104C308.626 323.987 309.485 323.137 310.566 322.553C311.648 321.952 312.859 321.652 314.199 321.652C315.538 321.652 316.749 321.952 317.831 322.553C318.913 323.137 319.763 323.979 320.381 325.078C321.016 326.177 321.334 327.456 321.334 328.916C321.334 330.376 321.008 331.664 320.355 332.78C319.72 333.879 318.852 334.729 317.753 335.33C316.654 335.931 315.435 336.232 314.096 336.232ZM314.096 334.171C314.937 334.171 315.727 333.974 316.465 333.579C317.204 333.184 317.796 332.591 318.243 331.801C318.706 331.011 318.938 330.05 318.938 328.916C318.938 327.783 318.715 326.821 318.269 326.031C317.822 325.241 317.238 324.657 316.517 324.279C315.796 323.884 315.014 323.687 314.173 323.687C313.314 323.687 312.524 323.884 311.803 324.279C311.099 324.657 310.532 325.241 310.103 326.031C309.673 326.821 309.459 327.783 309.459 328.916C309.459 330.067 309.665 331.037 310.077 331.827C310.506 332.617 311.073 333.209 311.777 333.604C312.481 333.982 313.254 334.171 314.096 334.171ZM331.294 321.626C333.011 321.626 334.402 322.15 335.467 323.197C336.532 324.228 337.064 325.722 337.064 327.68V336H334.746V328.015C334.746 326.606 334.394 325.533 333.69 324.795C332.985 324.039 332.024 323.661 330.804 323.661C329.568 323.661 328.581 324.048 327.842 324.82C327.121 325.593 326.76 326.718 326.76 328.195V336H324.416V321.884H326.76V323.893C327.224 323.172 327.851 322.614 328.641 322.219C329.448 321.824 330.332 321.626 331.294 321.626ZM341.64 336.155C341.194 336.155 340.816 336 340.507 335.691C340.198 335.382 340.043 335.004 340.043 334.557C340.043 334.111 340.198 333.733 340.507 333.424C340.816 333.115 341.194 332.96 341.64 332.96C342.07 332.96 342.43 333.115 342.722 333.424C343.031 333.733 343.186 334.111 343.186 334.557C343.186 335.004 343.031 335.382 342.722 335.691C342.43 336 342.07 336.155 341.64 336.155Z" fill="#F2F2F2"/>
<path d="M146.168 169.069C140.104 165.844 137.073 160.78 137.073 153.878C137.073 150.394 137.976 147.233 139.782 144.395C141.588 141.492 144.33 139.202 148.007 137.525C151.684 135.783 156.199 134.912 161.553 134.912C166.908 134.912 171.391 135.783 175.003 137.525C178.68 139.202 181.422 141.492 183.228 144.395C185.034 147.233 185.937 150.394 185.937 153.878C185.937 157.361 185.099 160.393 183.422 162.973C181.809 165.554 179.616 167.586 176.842 169.069C180.325 170.746 183.002 173.069 184.873 176.036C186.744 178.939 187.679 182.358 187.679 186.293C187.679 190.873 186.518 194.84 184.196 198.195C181.873 201.485 178.713 204 174.713 205.742C170.778 207.484 166.391 208.355 161.553 208.355C156.715 208.355 152.296 207.484 148.297 205.742C144.362 204 141.233 201.485 138.911 198.195C136.589 194.84 135.428 190.873 135.428 186.293C135.428 182.293 136.363 178.842 138.234 175.939C140.104 172.972 142.749 170.682 146.168 169.069ZM169.875 156.393C169.875 153.749 169.101 151.717 167.553 150.297C166.069 148.814 164.069 148.072 161.553 148.072C159.038 148.072 157.006 148.814 155.457 150.297C153.974 151.781 153.232 153.845 153.232 156.49C153.232 159.006 154.006 161.006 155.554 162.489C157.102 163.909 159.102 164.618 161.553 164.618C164.005 164.618 166.004 163.876 167.553 162.393C169.101 160.909 169.875 158.909 169.875 156.393ZM161.553 176.23C158.521 176.23 156.07 177.068 154.199 178.745C152.329 180.358 151.393 182.616 151.393 185.519C151.393 188.228 152.296 190.454 154.103 192.195C155.973 193.937 158.457 194.808 161.553 194.808C164.65 194.808 167.069 193.937 168.811 192.195C170.617 190.454 171.52 188.228 171.52 185.519C171.52 182.68 170.584 180.423 168.714 178.745C166.908 177.068 164.521 176.23 161.553 176.23ZM236.586 155.426C236.07 153.039 235.167 151.265 233.877 150.104C232.587 148.878 230.748 148.265 228.362 148.265C224.685 148.265 222.04 149.878 220.427 153.103C218.814 156.264 217.976 161.296 217.911 168.198C219.33 165.941 221.362 164.167 224.007 162.876C226.717 161.586 229.684 160.941 232.909 160.941C239.231 160.941 244.295 162.941 248.101 166.94C251.972 170.94 253.907 176.52 253.907 183.68C253.907 188.389 252.939 192.518 251.004 196.066C249.133 199.614 246.359 202.388 242.682 204.387C239.07 206.387 234.78 207.387 229.813 207.387C219.879 207.387 212.976 204.291 209.106 198.098C205.235 191.841 203.3 182.874 203.3 171.198C203.3 158.941 205.332 149.846 209.396 143.911C213.525 137.912 220.105 134.912 229.136 134.912C233.974 134.912 238.038 135.88 241.328 137.815C244.682 139.686 247.198 142.169 248.875 145.266C250.617 148.362 251.649 151.749 251.972 155.426H236.586ZM228.942 174.004C226.168 174.004 223.846 174.843 221.975 176.52C220.169 178.133 219.266 180.455 219.266 183.487C219.266 186.583 220.105 189.002 221.782 190.744C223.523 192.486 225.975 193.357 229.136 193.357C231.974 193.357 234.2 192.518 235.812 190.841C237.489 189.099 238.328 186.744 238.328 183.777C238.328 180.745 237.522 178.358 235.909 176.617C234.296 174.875 231.974 174.004 228.942 174.004ZM266.265 154.168C266.265 148.943 267.749 144.911 270.716 142.073C273.748 139.234 277.651 137.815 282.424 137.815C287.198 137.815 291.068 139.234 294.036 142.073C297.003 144.911 298.487 148.943 298.487 154.168C298.487 159.393 297.003 163.425 294.036 166.263C291.068 169.101 287.198 170.521 282.424 170.521C277.651 170.521 273.748 169.101 270.716 166.263C267.749 163.425 266.265 159.393 266.265 154.168ZM331.967 138.879L294.713 207H278.747L316.001 138.879H331.967ZM282.328 147.491C279.231 147.491 277.683 149.717 277.683 154.168C277.683 158.554 279.231 160.748 282.328 160.748C283.811 160.748 284.972 160.199 285.811 159.103C286.65 158.006 287.069 156.361 287.069 154.168C287.069 149.717 285.489 147.491 282.328 147.491ZM312.324 191.712C312.324 186.486 313.808 182.455 316.775 179.616C319.742 176.778 323.613 175.359 328.386 175.359C333.16 175.359 337.031 176.778 339.998 179.616C342.965 182.455 344.449 186.486 344.449 191.712C344.449 196.937 342.965 200.968 339.998 203.807C337.031 206.645 333.16 208.064 328.386 208.064C323.613 208.064 319.742 206.645 316.775 203.807C313.808 200.968 312.324 196.937 312.324 191.712ZM328.29 185.035C326.806 185.035 325.645 185.583 324.806 186.68C324.032 187.777 323.645 189.454 323.645 191.712C323.645 196.098 325.193 198.291 328.29 198.291C329.773 198.291 330.934 197.743 331.773 196.646C332.612 195.55 333.031 193.905 333.031 191.712C333.031 189.518 332.612 187.873 331.773 186.777C330.934 185.616 329.773 185.035 328.29 185.035Z" fill="white"/>
<defs>
<radialGradient id="paint0_angular_1411_3148" cx="0" cy="0" r="1" gradientUnits="userSpaceOnUse" gradientTransform="translate(238.5 238) rotate(-92.1) scale(220.937 220.42)">
<stop stop-color="#9B2552"/>
<stop offset="0.31" stop-color="#2E9D86"/>
<stop offset="0.61" stop-color="#8978B5"/>
<stop offset="0.83" stop-color="#5292B2"/>
<stop offset="0.992364" stop-color="#219EBC"/>
</radialGradient>
</defs>
</svg>
