<svg width="478" height="478" viewBox="0 0 478 478" fill="none" xmlns="http://www.w3.org/2000/svg">
<circle opacity="0.25" cx="239" cy="239" r="224" stroke="white" stroke-width="29"/>
<mask id="path-2-outside-1_1411_3139" maskUnits="userSpaceOnUse" x="15" y="15" width="446" height="447" fill="black">
<rect fill="white" x="15" y="15" width="446" height="447"/>
<path d="M238.5 25C281.097 25 322.711 37.8323 357.943 61.8318C393.174 85.8314 420.396 119.89 436.078 159.589C451.759 199.289 455.175 242.795 445.882 284.465C436.59 326.134 415.018 364.042 383.966 393.27C352.914 422.499 313.815 441.698 271.742 448.378C229.669 455.057 186.565 448.908 148.022 430.728C109.479 412.548 77.2761 383.177 55.5923 346.426C33.9085 309.674 23.7446 267.239 26.4193 224.626L238.5 238L238.5 25Z"/>
</mask>
<path d="M238.5 25C281.097 25 322.711 37.8323 357.943 61.8318C393.174 85.8314 420.396 119.89 436.078 159.589C451.759 199.289 455.175 242.795 445.882 284.465C436.59 326.134 415.018 364.042 383.966 393.27C352.914 422.499 313.815 441.698 271.742 448.378C229.669 455.057 186.565 448.908 148.022 430.728C109.479 412.548 77.2761 383.177 55.5923 346.426C33.9085 309.674 23.7446 267.239 26.4193 224.626L238.5 238L238.5 25Z" stroke="url(#paint0_angular_1411_3139)" stroke-width="20" mask="url(#path-2-outside-1_1411_3139)"/>
<ellipse cx="239.184" cy="238" rx="212.5" ry="213" fill="black"/>
<path d="M55.7044 258.232C54.3821 258.232 53.18 257.931 52.0981 257.33C51.0334 256.729 50.1919 255.879 49.5737 254.78C48.9726 253.664 48.6721 252.376 48.6721 250.916C48.6721 249.474 48.9812 248.203 49.5994 247.104C50.2348 245.987 51.0935 245.137 52.1754 244.553C53.2573 243.952 54.468 243.652 55.8075 243.652C57.147 243.652 58.3577 243.952 59.4396 244.553C60.5215 245.137 61.3716 245.979 61.9898 247.078C62.6252 248.177 62.9429 249.456 62.9429 250.916C62.9429 252.376 62.6166 253.664 61.964 254.78C61.3286 255.879 60.4614 256.729 59.3623 257.33C58.2632 257.931 57.0439 258.232 55.7044 258.232ZM55.7044 256.171C56.5459 256.171 57.3359 255.974 58.0743 255.579C58.8128 255.184 59.4052 254.591 59.8517 253.801C60.3154 253.011 60.5473 252.05 60.5473 250.916C60.5473 249.783 60.324 248.821 59.8775 248.031C59.431 247.241 58.8471 246.657 58.1259 246.279C57.4046 245.884 56.6232 245.687 55.7817 245.687C54.9231 245.687 54.1331 245.884 53.4118 246.279C52.7077 246.657 52.141 247.241 51.7117 248.031C51.2824 248.821 51.0677 249.783 51.0677 250.916C51.0677 252.067 51.2738 253.037 51.6859 253.827C52.1153 254.617 52.682 255.209 53.3861 255.604C54.0902 255.982 54.863 256.171 55.7044 256.171ZM71.7694 245.816H68.807V258H66.4629V245.816H64.634V243.884H66.4629V242.879C66.4629 241.299 66.8665 240.149 67.6736 239.427C68.4979 238.689 69.8117 238.32 71.6148 238.32V240.277C70.5844 240.277 69.8546 240.483 69.4253 240.896C69.0131 241.291 68.807 241.952 68.807 242.879V243.884H71.7694V245.816ZM94.9712 245.249C94.4731 244.201 93.7519 243.394 92.8074 242.828C91.8628 242.244 90.7638 241.952 89.5101 241.952C88.2565 241.952 87.1231 242.244 86.1098 242.828C85.1138 243.394 84.3238 244.219 83.74 245.301C83.1733 246.365 82.8899 247.602 82.8899 249.01C82.8899 250.418 83.1733 251.655 83.74 252.719C84.3238 253.784 85.1138 254.608 86.1098 255.192C87.1231 255.759 88.2565 256.042 89.5101 256.042C91.2618 256.042 92.7043 255.518 93.8377 254.471C94.9712 253.423 95.6323 252.007 95.8212 250.221H88.6601V248.314H98.3199V250.118C98.1825 251.594 97.7189 252.951 96.9289 254.188C96.1389 255.407 95.1 256.377 93.812 257.098C92.524 257.803 91.09 258.155 89.5101 258.155C87.8443 258.155 86.3245 257.768 84.9507 256.995C83.5768 256.205 82.4863 255.115 81.6792 253.724C80.8892 252.333 80.4943 250.762 80.4943 249.01C80.4943 247.258 80.8892 245.687 81.6792 244.296C82.4863 242.888 83.5768 241.797 84.9507 241.024C86.3245 240.234 87.8443 239.839 89.5101 239.839C91.4163 239.839 93.0993 240.312 94.559 241.256C96.0359 242.201 97.1092 243.532 97.779 245.249H94.9712ZM114.299 250.401C114.299 250.847 114.273 251.32 114.222 251.818H102.939C103.025 253.209 103.497 254.299 104.356 255.089C105.232 255.862 106.288 256.248 107.524 256.248C108.538 256.248 109.379 256.017 110.049 255.553C110.736 255.072 111.217 254.437 111.491 253.647H114.016C113.638 255.003 112.882 256.111 111.749 256.97C110.615 257.811 109.207 258.232 107.524 258.232C106.185 258.232 104.983 257.931 103.918 257.33C102.87 256.729 102.046 255.879 101.445 254.78C100.844 253.664 100.543 252.376 100.543 250.916C100.543 249.456 100.835 248.177 101.419 247.078C102.003 245.979 102.819 245.137 103.866 244.553C104.931 243.952 106.15 243.652 107.524 243.652C108.864 243.652 110.049 243.944 111.079 244.528C112.11 245.112 112.9 245.919 113.449 246.949C114.016 247.962 114.299 249.113 114.299 250.401ZM111.878 249.911C111.878 249.018 111.68 248.254 111.285 247.619C110.89 246.966 110.349 246.477 109.662 246.151C108.993 245.807 108.246 245.635 107.421 245.635C106.236 245.635 105.223 246.013 104.382 246.769C103.557 247.524 103.085 248.572 102.965 249.911H111.878ZM124.271 243.626C125.988 243.626 127.379 244.15 128.444 245.197C129.509 246.228 130.041 247.722 130.041 249.68V258H127.723V250.015C127.723 248.606 127.371 247.533 126.667 246.795C125.963 246.039 125.001 245.661 123.782 245.661C122.545 245.661 121.558 246.048 120.819 246.82C120.098 247.593 119.737 248.718 119.737 250.195V258H117.393V243.884H119.737V245.893C120.201 245.172 120.828 244.614 121.618 244.219C122.425 243.824 123.309 243.626 124.271 243.626ZM142.721 255.965H151.48V258H139.939V256.145L148.646 242.081H140.042V240.046H151.428V241.9L142.721 255.965ZM163.886 246.485C164.35 245.678 165.037 245.009 165.947 244.476C166.874 243.927 167.947 243.652 169.167 243.652C170.42 243.652 171.554 243.952 172.567 244.553C173.597 245.155 174.404 246.005 174.988 247.104C175.572 248.186 175.864 249.448 175.864 250.89C175.864 252.316 175.572 253.587 174.988 254.703C174.404 255.819 173.597 256.686 172.567 257.304C171.554 257.923 170.42 258.232 169.167 258.232C167.965 258.232 166.9 257.966 165.973 257.433C165.062 256.884 164.367 256.205 163.886 255.398V264.698H161.542V243.884H163.886V246.485ZM173.469 250.89C173.469 249.826 173.254 248.898 172.825 248.108C172.395 247.318 171.811 246.717 171.073 246.305C170.352 245.893 169.553 245.687 168.677 245.687C167.819 245.687 167.02 245.902 166.282 246.331C165.56 246.743 164.976 247.353 164.53 248.16C164.101 248.95 163.886 249.869 163.886 250.916C163.886 251.981 164.101 252.917 164.53 253.724C164.976 254.514 165.56 255.124 166.282 255.553C167.02 255.965 167.819 256.171 168.677 256.171C169.553 256.171 170.352 255.965 171.073 255.553C171.811 255.124 172.395 254.514 172.825 253.724C173.254 252.917 173.469 251.972 173.469 250.89ZM181.294 246.176C181.706 245.369 182.29 244.742 183.046 244.296C183.818 243.849 184.754 243.626 185.853 243.626V246.048H185.235C182.608 246.048 181.294 247.473 181.294 250.324V258H178.95V243.884H181.294V246.176ZM189.77 241.591C189.323 241.591 188.946 241.437 188.637 241.127C188.327 240.818 188.173 240.441 188.173 239.994C188.173 239.548 188.327 239.17 188.637 238.861C188.946 238.551 189.323 238.397 189.77 238.397C190.199 238.397 190.56 238.551 190.852 238.861C191.161 239.17 191.316 239.548 191.316 239.994C191.316 240.441 191.161 240.818 190.852 241.127C190.56 241.437 190.199 241.591 189.77 241.591ZM190.903 243.884V258H188.559V243.884H190.903ZM201.055 258.232C199.733 258.232 198.531 257.931 197.449 257.33C196.384 256.729 195.543 255.879 194.924 254.78C194.323 253.664 194.023 252.376 194.023 250.916C194.023 249.474 194.332 248.203 194.95 247.104C195.585 245.987 196.444 245.137 197.526 244.553C198.608 243.952 199.819 243.652 201.158 243.652C202.498 243.652 203.708 243.952 204.79 244.553C205.872 245.137 206.722 245.979 207.34 247.078C207.976 248.177 208.294 249.456 208.294 250.916C208.294 252.376 207.967 253.664 207.315 254.78C206.679 255.879 205.812 256.729 204.713 257.33C203.614 257.931 202.395 258.232 201.055 258.232ZM201.055 256.171C201.897 256.171 202.687 255.974 203.425 255.579C204.163 255.184 204.756 254.591 205.202 253.801C205.666 253.011 205.898 252.05 205.898 250.916C205.898 249.783 205.675 248.821 205.228 248.031C204.782 247.241 204.198 246.657 203.476 246.279C202.755 245.884 201.974 245.687 201.132 245.687C200.274 245.687 199.484 245.884 198.762 246.279C198.058 246.657 197.492 247.241 197.062 248.031C196.633 248.821 196.418 249.783 196.418 250.916C196.418 252.067 196.624 253.037 197.037 253.827C197.466 254.617 198.033 255.209 198.737 255.604C199.441 255.982 200.214 256.171 201.055 256.171ZM213.72 246.176C214.132 245.369 214.716 244.742 215.471 244.296C216.244 243.849 217.18 243.626 218.279 243.626V246.048H217.661C215.034 246.048 213.72 247.473 213.72 250.324V258H211.376V243.884H213.72V246.176ZM222.196 241.591C221.749 241.591 221.372 241.437 221.062 241.127C220.753 240.818 220.599 240.441 220.599 239.994C220.599 239.548 220.753 239.17 221.062 238.861C221.372 238.551 221.749 238.397 222.196 238.397C222.625 238.397 222.986 238.551 223.278 238.861C223.587 239.17 223.741 239.548 223.741 239.994C223.741 240.441 223.587 240.818 223.278 241.127C222.986 241.437 222.625 241.591 222.196 241.591ZM223.329 243.884V258H220.985V243.884H223.329ZM230.184 245.816V254.136C230.184 254.823 230.33 255.312 230.622 255.604C230.914 255.879 231.42 256.017 232.142 256.017H233.867V258H231.755C230.45 258 229.471 257.699 228.819 257.098C228.166 256.497 227.84 255.51 227.84 254.136V245.816H226.011V243.884H227.84V240.329H230.184V243.884H233.867V245.816H230.184ZM237.918 241.591C237.472 241.591 237.094 241.437 236.785 241.127C236.476 240.818 236.321 240.441 236.321 239.994C236.321 239.548 236.476 239.17 236.785 238.861C237.094 238.551 237.472 238.397 237.918 238.397C238.348 238.397 238.708 238.551 239 238.861C239.309 239.17 239.464 239.548 239.464 239.994C239.464 240.441 239.309 240.818 239 241.127C238.708 241.437 238.348 241.591 237.918 241.591ZM239.052 243.884V258H236.708V243.884H239.052ZM244.799 256.068H251.728V258H242.12V256.068L248.972 245.79H242.171V243.884H251.676V245.79L244.799 256.068ZM267.649 250.401C267.649 250.847 267.624 251.32 267.572 251.818H256.289C256.375 253.209 256.847 254.299 257.706 255.089C258.582 255.862 259.638 256.248 260.875 256.248C261.888 256.248 262.729 256.017 263.399 255.553C264.086 255.072 264.567 254.437 264.842 253.647H267.366C266.988 255.003 266.233 256.111 265.099 256.97C263.966 257.811 262.558 258.232 260.875 258.232C259.535 258.232 258.333 257.931 257.268 257.33C256.221 256.729 255.396 255.879 254.795 254.78C254.194 253.664 253.894 252.376 253.894 250.916C253.894 249.456 254.186 248.177 254.77 247.078C255.353 245.979 256.169 245.137 257.217 244.553C258.281 243.952 259.501 243.652 260.875 243.652C262.214 243.652 263.399 243.944 264.429 244.528C265.46 245.112 266.25 245.919 266.799 246.949C267.366 247.962 267.649 249.113 267.649 250.401ZM265.228 249.911C265.228 249.018 265.03 248.254 264.635 247.619C264.24 246.966 263.7 246.477 263.013 246.151C262.343 245.807 261.596 245.635 260.772 245.635C259.587 245.635 258.573 246.013 257.732 246.769C256.908 247.524 256.435 248.572 256.315 249.911H265.228ZM275.741 258.232C274.659 258.232 273.689 258.052 272.83 257.691C271.971 257.313 271.293 256.798 270.795 256.145C270.297 255.476 270.022 254.711 269.971 253.853H272.392C272.461 254.557 272.787 255.132 273.371 255.579C273.972 256.025 274.753 256.248 275.715 256.248C276.608 256.248 277.312 256.051 277.827 255.656C278.343 255.261 278.6 254.763 278.6 254.162C278.6 253.544 278.325 253.088 277.776 252.797C277.226 252.487 276.376 252.187 275.226 251.895C274.178 251.62 273.319 251.345 272.65 251.071C271.997 250.779 271.43 250.358 270.95 249.808C270.486 249.242 270.254 248.503 270.254 247.593C270.254 246.872 270.469 246.211 270.898 245.61C271.327 245.009 271.937 244.536 272.727 244.193C273.517 243.832 274.419 243.652 275.432 243.652C276.995 243.652 278.257 244.047 279.218 244.837C280.18 245.627 280.695 246.709 280.764 248.083H278.42C278.368 247.344 278.068 246.752 277.518 246.305C276.986 245.859 276.265 245.635 275.354 245.635C274.513 245.635 273.843 245.816 273.345 246.176C272.847 246.537 272.598 247.009 272.598 247.593C272.598 248.057 272.744 248.443 273.036 248.752C273.345 249.044 273.723 249.285 274.17 249.474C274.633 249.645 275.269 249.843 276.076 250.066C277.089 250.341 277.913 250.616 278.549 250.89C279.184 251.148 279.725 251.543 280.172 252.075C280.635 252.608 280.876 253.303 280.893 254.162C280.893 254.935 280.678 255.63 280.249 256.248C279.819 256.867 279.21 257.356 278.42 257.717C277.647 258.06 276.754 258.232 275.741 258.232ZM292.28 241.591C291.834 241.591 291.456 241.437 291.147 241.127C290.838 240.818 290.683 240.441 290.683 239.994C290.683 239.548 290.838 239.17 291.147 238.861C291.456 238.551 291.834 238.397 292.28 238.397C292.709 238.397 293.07 238.551 293.362 238.861C293.671 239.17 293.826 239.548 293.826 239.994C293.826 240.441 293.671 240.818 293.362 241.127C293.07 241.437 292.709 241.591 292.28 241.591ZM293.414 243.884V258H291.069V243.884H293.414ZM300.268 245.816V254.136C300.268 254.823 300.414 255.312 300.706 255.604C300.998 255.879 301.505 256.017 302.226 256.017H303.952V258H301.839C300.534 258 299.555 257.699 298.903 257.098C298.25 256.497 297.924 255.51 297.924 254.136V245.816H296.095V243.884H297.924V240.329H300.268V243.884H303.952V245.816H300.268ZM311.789 258.232C310.707 258.232 309.737 258.052 308.878 257.691C308.02 257.313 307.341 256.798 306.843 256.145C306.345 255.476 306.071 254.711 306.019 253.853H308.441C308.509 254.557 308.835 255.132 309.419 255.579C310.02 256.025 310.802 256.248 311.764 256.248C312.657 256.248 313.361 256.051 313.876 255.656C314.391 255.261 314.649 254.763 314.649 254.162C314.649 253.544 314.374 253.088 313.824 252.797C313.275 252.487 312.425 252.187 311.274 251.895C310.227 251.62 309.368 251.345 308.698 251.071C308.046 250.779 307.479 250.358 306.998 249.808C306.534 249.242 306.302 248.503 306.302 247.593C306.302 246.872 306.517 246.211 306.946 245.61C307.376 245.009 307.985 244.536 308.775 244.193C309.565 243.832 310.467 243.652 311.48 243.652C313.043 243.652 314.305 244.047 315.267 244.837C316.229 245.627 316.744 246.709 316.812 248.083H314.468C314.417 247.344 314.116 246.752 313.567 246.305C313.034 245.859 312.313 245.635 311.403 245.635C310.561 245.635 309.892 245.816 309.394 246.176C308.896 246.537 308.647 247.009 308.647 247.593C308.647 248.057 308.793 248.443 309.085 248.752C309.394 249.044 309.771 249.285 310.218 249.474C310.682 249.645 311.317 249.843 312.124 250.066C313.137 250.341 313.962 250.616 314.597 250.89C315.232 251.148 315.773 251.543 316.22 252.075C316.684 252.608 316.924 253.303 316.941 254.162C316.941 254.935 316.727 255.63 316.297 256.248C315.868 256.867 315.258 257.356 314.468 257.717C313.695 258.06 312.802 258.232 311.789 258.232ZM329.462 238.938V258H327.118V238.938H329.462ZM346.337 250.401C346.337 250.847 346.311 251.32 346.26 251.818H334.977C335.063 253.209 335.535 254.299 336.394 255.089C337.27 255.862 338.326 256.248 339.562 256.248C340.575 256.248 341.417 256.017 342.087 255.553C342.774 255.072 343.254 254.437 343.529 253.647H346.054C345.676 255.003 344.92 256.111 343.787 256.97C342.653 257.811 341.245 258.232 339.562 258.232C338.223 258.232 337.021 257.931 335.956 257.33C334.908 256.729 334.084 255.879 333.483 254.78C332.882 253.664 332.581 252.376 332.581 250.916C332.581 249.456 332.873 248.177 333.457 247.078C334.041 245.979 334.857 245.137 335.904 244.553C336.969 243.952 338.188 243.652 339.562 243.652C340.902 243.652 342.087 243.944 343.117 244.528C344.147 245.112 344.937 245.919 345.487 246.949C346.054 247.962 346.337 249.113 346.337 250.401ZM343.916 249.911C343.916 249.018 343.718 248.254 343.323 247.619C342.928 246.966 342.387 246.477 341.7 246.151C341.03 245.807 340.283 245.635 339.459 245.635C338.274 245.635 337.261 246.013 336.419 246.769C335.595 247.524 335.123 248.572 335.003 249.911H343.916ZM348.555 250.89C348.555 249.448 348.847 248.186 349.431 247.104C350.015 246.005 350.813 245.155 351.827 244.553C352.857 243.952 353.999 243.652 355.253 243.652C356.489 243.652 357.563 243.918 358.473 244.45C359.383 244.983 360.061 245.653 360.508 246.46V243.884H362.878V258H360.508V255.373C360.044 256.197 359.349 256.884 358.421 257.433C357.511 257.966 356.446 258.232 355.227 258.232C353.973 258.232 352.84 257.923 351.827 257.304C350.813 256.686 350.015 255.819 349.431 254.703C348.847 253.587 348.555 252.316 348.555 250.89ZM360.508 250.916C360.508 249.851 360.293 248.924 359.864 248.134C359.434 247.344 358.85 246.743 358.112 246.331C357.391 245.902 356.592 245.687 355.716 245.687C354.841 245.687 354.042 245.893 353.321 246.305C352.599 246.717 352.024 247.318 351.595 248.108C351.166 248.898 350.951 249.826 350.951 250.89C350.951 251.972 351.166 252.917 351.595 253.724C352.024 254.514 352.599 255.124 353.321 255.553C354.042 255.965 354.841 256.171 355.716 256.171C356.592 256.171 357.391 255.965 358.112 255.553C358.85 255.124 359.434 254.514 359.864 253.724C360.293 252.917 360.508 251.981 360.508 250.916ZM369.183 246.176C369.595 245.369 370.179 244.742 370.935 244.296C371.708 243.849 372.643 243.626 373.743 243.626V246.048H373.124C370.497 246.048 369.183 247.473 369.183 250.324V258H366.839V243.884H369.183V246.176ZM383.326 243.626C385.044 243.626 386.435 244.15 387.499 245.197C388.564 246.228 389.096 247.722 389.096 249.68V258H386.778V250.015C386.778 248.606 386.426 247.533 385.722 246.795C385.018 246.039 384.056 245.661 382.837 245.661C381.6 245.661 380.613 246.048 379.875 246.82C379.153 247.593 378.793 248.718 378.793 250.195V258H376.449V243.884H378.793V245.893C379.256 245.172 379.883 244.614 380.673 244.219C381.48 243.824 382.365 243.626 383.326 243.626ZM394.136 241.591C393.69 241.591 393.312 241.437 393.003 241.127C392.694 240.818 392.539 240.441 392.539 239.994C392.539 239.548 392.694 239.17 393.003 238.861C393.312 238.551 393.69 238.397 394.136 238.397C394.566 238.397 394.926 238.551 395.218 238.861C395.527 239.17 395.682 239.548 395.682 239.994C395.682 240.441 395.527 240.818 395.218 241.127C394.926 241.437 394.566 241.591 394.136 241.591ZM395.27 243.884V258H392.926V243.884H395.27ZM406.143 243.626C407.86 243.626 409.251 244.15 410.316 245.197C411.38 246.228 411.913 247.722 411.913 249.68V258H409.594V250.015C409.594 248.606 409.242 247.533 408.538 246.795C407.834 246.039 406.873 245.661 405.653 245.661C404.417 245.661 403.429 246.048 402.691 246.82C401.97 247.593 401.609 248.718 401.609 250.195V258H399.265V243.884H401.609V245.893C402.073 245.172 402.699 244.614 403.489 244.219C404.297 243.824 405.181 243.626 406.143 243.626ZM421.564 243.652C422.783 243.652 423.848 243.918 424.758 244.45C425.685 244.983 426.372 245.653 426.819 246.46V243.884H429.188V258.309C429.188 259.597 428.914 260.739 428.364 261.735C427.815 262.748 427.025 263.538 425.994 264.105C424.981 264.672 423.796 264.955 422.439 264.955C420.585 264.955 419.039 264.517 417.803 263.641C416.566 262.766 415.836 261.572 415.613 260.061H417.932C418.189 260.919 418.722 261.606 419.529 262.122C420.336 262.654 421.306 262.92 422.439 262.92C423.727 262.92 424.775 262.517 425.582 261.709C426.406 260.902 426.819 259.769 426.819 258.309V255.347C426.355 256.171 425.668 256.858 424.758 257.408C423.848 257.957 422.783 258.232 421.564 258.232C420.31 258.232 419.168 257.923 418.138 257.304C417.124 256.686 416.326 255.819 415.742 254.703C415.158 253.587 414.866 252.316 414.866 250.89C414.866 249.448 415.158 248.186 415.742 247.104C416.326 246.005 417.124 245.155 418.138 244.553C419.168 243.952 420.31 243.652 421.564 243.652ZM426.819 250.916C426.819 249.851 426.604 248.924 426.175 248.134C425.745 247.344 425.161 246.743 424.423 246.331C423.702 245.902 422.903 245.687 422.027 245.687C421.151 245.687 420.353 245.893 419.632 246.305C418.91 246.717 418.335 247.318 417.906 248.108C417.476 248.898 417.262 249.826 417.262 250.89C417.262 251.972 417.476 252.917 417.906 253.724C418.335 254.514 418.91 255.124 419.632 255.553C420.353 255.965 421.151 256.171 422.027 256.171C422.903 256.171 423.702 255.965 424.423 255.553C425.161 255.124 425.745 254.514 426.175 253.724C426.604 252.917 426.819 251.981 426.819 250.916ZM86.0034 289.89C86.0034 288.448 86.2953 287.186 86.8792 286.104C87.4631 285.005 88.2617 284.155 89.2749 283.553C90.3053 282.952 91.4473 282.652 92.7009 282.652C93.9374 282.652 95.0107 282.918 95.9209 283.45C96.831 283.983 97.5094 284.653 97.9559 285.46V282.884H100.326V297H97.9559V294.373C97.4922 295.197 96.7967 295.884 95.8693 296.433C94.9592 296.966 93.8944 297.232 92.6751 297.232C91.4215 297.232 90.2881 296.923 89.2749 296.304C88.2617 295.686 87.4631 294.819 86.8792 293.703C86.2953 292.587 86.0034 291.316 86.0034 289.89ZM97.9559 289.916C97.9559 288.851 97.7412 287.924 97.3119 287.134C96.8825 286.344 96.2987 285.743 95.5602 285.331C94.8389 284.902 94.0404 284.687 93.1646 284.687C92.2887 284.687 91.4902 284.893 90.7689 285.305C90.0477 285.717 89.4724 286.318 89.043 287.108C88.6137 287.898 88.399 288.826 88.399 289.89C88.399 290.972 88.6137 291.917 89.043 292.724C89.4724 293.514 90.0477 294.124 90.7689 294.553C91.4902 294.965 92.2887 295.171 93.1646 295.171C94.0404 295.171 94.8389 294.965 95.5602 294.553C96.2987 294.124 96.8825 293.514 97.3119 292.724C97.7412 291.917 97.9559 290.981 97.9559 289.916ZM111.165 282.626C112.882 282.626 114.273 283.15 115.338 284.197C116.403 285.228 116.935 286.722 116.935 288.68V297H114.617V289.015C114.617 287.606 114.265 286.533 113.561 285.795C112.856 285.039 111.895 284.661 110.675 284.661C109.439 284.661 108.452 285.048 107.713 285.82C106.992 286.593 106.631 287.718 106.631 289.195V297H104.287V282.884H106.631V284.893C107.095 284.172 107.722 283.614 108.512 283.219C109.319 282.824 110.203 282.626 111.165 282.626ZM119.888 289.89C119.888 288.448 120.18 287.186 120.764 286.104C121.348 285.005 122.147 284.155 123.16 283.553C124.19 282.952 125.341 282.652 126.612 282.652C127.711 282.652 128.732 282.909 129.677 283.425C130.622 283.923 131.343 284.584 131.841 285.408V277.938H134.211V297H131.841V294.347C131.377 295.188 130.69 295.884 129.78 296.433C128.87 296.966 127.805 297.232 126.586 297.232C125.332 297.232 124.19 296.923 123.16 296.304C122.147 295.686 121.348 294.819 120.764 293.703C120.18 292.587 119.888 291.316 119.888 289.89ZM131.841 289.916C131.841 288.851 131.626 287.924 131.197 287.134C130.768 286.344 130.184 285.743 129.445 285.331C128.724 284.902 127.925 284.687 127.05 284.687C126.174 284.687 125.375 284.893 124.654 285.305C123.933 285.717 123.357 286.318 122.928 287.108C122.499 287.898 122.284 288.826 122.284 289.89C122.284 290.972 122.499 291.917 122.928 292.724C123.357 293.514 123.933 294.124 124.654 294.553C125.375 294.965 126.174 295.171 127.05 295.171C127.925 295.171 128.724 294.965 129.445 294.553C130.184 294.124 130.768 293.514 131.197 292.724C131.626 291.917 131.841 290.981 131.841 289.916ZM144.164 289.89C144.164 288.448 144.456 287.186 145.04 286.104C145.623 285.005 146.422 284.155 147.435 283.553C148.466 282.952 149.616 282.652 150.887 282.652C151.986 282.652 153.008 282.909 153.952 283.425C154.897 283.923 155.618 284.584 156.116 285.408V277.938H158.486V297H156.116V294.347C155.653 295.188 154.966 295.884 154.055 296.433C153.145 296.966 152.081 297.232 150.861 297.232C149.608 297.232 148.466 296.923 147.435 296.304C146.422 295.686 145.623 294.819 145.04 293.703C144.456 292.587 144.164 291.316 144.164 289.89ZM156.116 289.916C156.116 288.851 155.902 287.924 155.472 287.134C155.043 286.344 154.459 285.743 153.721 285.331C152.999 284.902 152.201 284.687 151.325 284.687C150.449 284.687 149.651 284.893 148.929 285.305C148.208 285.717 147.633 286.318 147.203 287.108C146.774 287.898 146.559 288.826 146.559 289.89C146.559 290.972 146.774 291.917 147.203 292.724C147.633 293.514 148.208 294.124 148.929 294.553C149.651 294.965 150.449 295.171 151.325 295.171C152.201 295.171 152.999 294.965 153.721 294.553C154.459 294.124 155.043 293.514 155.472 292.724C155.902 291.917 156.116 290.981 156.116 289.916ZM175.327 289.401C175.327 289.847 175.302 290.32 175.25 290.818H163.967C164.053 292.209 164.525 293.299 165.384 294.089C166.26 294.862 167.316 295.248 168.553 295.248C169.566 295.248 170.407 295.017 171.077 294.553C171.764 294.072 172.245 293.437 172.519 292.647H175.044C174.666 294.003 173.911 295.111 172.777 295.97C171.644 296.811 170.235 297.232 168.553 297.232C167.213 297.232 166.011 296.931 164.946 296.33C163.899 295.729 163.074 294.879 162.473 293.78C161.872 292.664 161.572 291.376 161.572 289.916C161.572 288.456 161.864 287.177 162.447 286.078C163.031 284.979 163.847 284.137 164.895 283.553C165.959 282.952 167.179 282.652 168.553 282.652C169.892 282.652 171.077 282.944 172.107 283.528C173.138 284.112 173.928 284.919 174.477 285.949C175.044 286.962 175.327 288.113 175.327 289.401ZM172.906 288.911C172.906 288.018 172.708 287.254 172.313 286.619C171.918 285.966 171.377 285.477 170.691 285.151C170.021 284.807 169.274 284.635 168.449 284.635C167.265 284.635 166.251 285.013 165.41 285.769C164.586 286.524 164.113 287.572 163.993 288.911H172.906ZM183.676 294.836L188.056 282.884H190.554L185.016 297H182.285L176.747 282.884H179.272L183.676 294.836ZM205.741 289.401C205.741 289.847 205.715 290.32 205.663 290.818H194.381C194.467 292.209 194.939 293.299 195.798 294.089C196.673 294.862 197.729 295.248 198.966 295.248C199.979 295.248 200.821 295.017 201.49 294.553C202.177 294.072 202.658 293.437 202.933 292.647H205.457C205.08 294.003 204.324 295.111 203.191 295.97C202.057 296.811 200.649 297.232 198.966 297.232C197.626 297.232 196.424 296.931 195.36 296.33C194.312 295.729 193.488 294.879 192.887 293.78C192.286 292.664 191.985 291.376 191.985 289.916C191.985 288.456 192.277 287.177 192.861 286.078C193.445 284.979 194.261 284.137 195.308 283.553C196.373 282.952 197.592 282.652 198.966 282.652C200.305 282.652 201.49 282.944 202.521 283.528C203.551 284.112 204.341 284.919 204.891 285.949C205.457 286.962 205.741 288.113 205.741 289.401ZM203.319 288.911C203.319 288.018 203.122 287.254 202.727 286.619C202.332 285.966 201.791 285.477 201.104 285.151C200.434 284.807 199.687 284.635 198.863 284.635C197.678 284.635 196.665 285.013 195.823 285.769C194.999 286.524 194.527 287.572 194.407 288.911H203.319ZM211.179 277.938V297H208.835V277.938H211.179ZM221.331 297.232C220.008 297.232 218.806 296.931 217.724 296.33C216.66 295.729 215.818 294.879 215.2 293.78C214.599 292.664 214.298 291.376 214.298 289.916C214.298 288.474 214.607 287.203 215.226 286.104C215.861 284.987 216.72 284.137 217.802 283.553C218.884 282.952 220.094 282.652 221.434 282.652C222.773 282.652 223.984 282.952 225.066 283.553C226.148 284.137 226.998 284.979 227.616 286.078C228.251 287.177 228.569 288.456 228.569 289.916C228.569 291.376 228.243 292.664 227.59 293.78C226.955 294.879 226.088 295.729 224.989 296.33C223.89 296.931 222.67 297.232 221.331 297.232ZM221.331 295.171C222.172 295.171 222.962 294.974 223.701 294.579C224.439 294.184 225.032 293.591 225.478 292.801C225.942 292.011 226.174 291.05 226.174 289.916C226.174 288.783 225.95 287.821 225.504 287.031C225.057 286.241 224.473 285.657 223.752 285.279C223.031 284.884 222.25 284.687 221.408 284.687C220.549 284.687 219.759 284.884 219.038 285.279C218.334 285.657 217.767 286.241 217.338 287.031C216.909 287.821 216.694 288.783 216.694 289.916C216.694 291.067 216.9 292.037 217.312 292.827C217.742 293.617 218.308 294.209 219.012 294.604C219.716 294.982 220.489 295.171 221.331 295.171ZM233.995 285.485C234.459 284.678 235.146 284.009 236.056 283.476C236.984 282.927 238.057 282.652 239.276 282.652C240.53 282.652 241.663 282.952 242.676 283.553C243.707 284.155 244.514 285.005 245.098 286.104C245.682 287.186 245.974 288.448 245.974 289.89C245.974 291.316 245.682 292.587 245.098 293.703C244.514 294.819 243.707 295.686 242.676 296.304C241.663 296.923 240.53 297.232 239.276 297.232C238.074 297.232 237.009 296.966 236.082 296.433C235.172 295.884 234.476 295.205 233.995 294.398V303.698H231.651V282.884H233.995V285.485ZM243.578 289.89C243.578 288.826 243.363 287.898 242.934 287.108C242.505 286.318 241.921 285.717 241.182 285.305C240.461 284.893 239.663 284.687 238.787 284.687C237.928 284.687 237.13 284.902 236.391 285.331C235.67 285.743 235.086 286.353 234.639 287.16C234.21 287.95 233.995 288.869 233.995 289.916C233.995 290.981 234.21 291.917 234.639 292.724C235.086 293.514 235.67 294.124 236.391 294.553C237.13 294.965 237.928 295.171 238.787 295.171C239.663 295.171 240.461 294.965 241.182 294.553C241.921 294.124 242.505 293.514 242.934 292.724C243.363 291.917 243.578 290.972 243.578 289.89ZM266.035 282.626C267.134 282.626 268.113 282.858 268.971 283.322C269.83 283.768 270.508 284.446 271.006 285.357C271.504 286.267 271.753 287.374 271.753 288.68V297H269.435V289.015C269.435 287.606 269.083 286.533 268.379 285.795C267.692 285.039 266.756 284.661 265.571 284.661C264.352 284.661 263.382 285.056 262.66 285.846C261.939 286.619 261.578 287.744 261.578 289.221V297H259.26V289.015C259.26 287.606 258.908 286.533 258.204 285.795C257.517 285.039 256.581 284.661 255.396 284.661C254.177 284.661 253.206 285.056 252.485 285.846C251.764 286.619 251.403 287.744 251.403 289.221V297H249.059V282.884H251.403V284.919C251.867 284.18 252.485 283.614 253.258 283.219C254.048 282.824 254.915 282.626 255.86 282.626C257.045 282.626 258.092 282.892 259.002 283.425C259.913 283.957 260.591 284.738 261.037 285.769C261.432 284.773 262.085 284 262.995 283.45C263.905 282.901 264.918 282.626 266.035 282.626ZM288.478 289.401C288.478 289.847 288.453 290.32 288.401 290.818H277.118C277.204 292.209 277.677 293.299 278.535 294.089C279.411 294.862 280.467 295.248 281.704 295.248C282.717 295.248 283.558 295.017 284.228 294.553C284.915 294.072 285.396 293.437 285.671 292.647H288.195C287.817 294.003 287.062 295.111 285.928 295.97C284.795 296.811 283.387 297.232 281.704 297.232C280.364 297.232 279.162 296.931 278.097 296.33C277.05 295.729 276.225 294.879 275.624 293.78C275.023 292.664 274.723 291.376 274.723 289.916C274.723 288.456 275.015 287.177 275.599 286.078C276.182 284.979 276.998 284.137 278.046 283.553C279.11 282.952 280.33 282.652 281.704 282.652C283.043 282.652 284.228 282.944 285.258 283.528C286.289 284.112 287.079 284.919 287.628 285.949C288.195 286.962 288.478 288.113 288.478 289.401ZM286.057 288.911C286.057 288.018 285.86 287.254 285.465 286.619C285.07 285.966 284.529 285.477 283.842 285.151C283.172 284.807 282.425 284.635 281.601 284.635C280.416 284.635 279.402 285.013 278.561 285.769C277.737 286.524 277.264 287.572 277.144 288.911H286.057ZM298.45 282.626C300.168 282.626 301.559 283.15 302.623 284.197C303.688 285.228 304.221 286.722 304.221 288.68V297H301.902V289.015C301.902 287.606 301.55 286.533 300.846 285.795C300.142 285.039 299.18 284.661 297.961 284.661C296.725 284.661 295.737 285.048 294.999 285.82C294.277 286.593 293.917 287.718 293.917 289.195V297H291.573V282.884H293.917V284.893C294.38 284.172 295.007 283.614 295.797 283.219C296.604 282.824 297.489 282.626 298.45 282.626ZM310.909 284.816V293.136C310.909 293.823 311.055 294.312 311.347 294.604C311.639 294.879 312.145 295.017 312.867 295.017H314.593V297H312.48C311.175 297 310.196 296.699 309.544 296.098C308.891 295.497 308.565 294.51 308.565 293.136V284.816H306.736V282.884H308.565V279.329H310.909V282.884H314.593V284.816H310.909ZM325.511 280.591C325.065 280.591 324.687 280.437 324.378 280.127C324.069 279.818 323.914 279.441 323.914 278.994C323.914 278.548 324.069 278.17 324.378 277.861C324.687 277.551 325.065 277.397 325.511 277.397C325.94 277.397 326.301 277.551 326.593 277.861C326.902 278.17 327.057 278.548 327.057 278.994C327.057 279.441 326.902 279.818 326.593 280.127C326.301 280.437 325.94 280.591 325.511 280.591ZM326.645 282.884V297H324.3V282.884H326.645ZM337.517 282.626C339.235 282.626 340.626 283.15 341.691 284.197C342.755 285.228 343.288 286.722 343.288 288.68V297H340.969V289.015C340.969 287.606 340.617 286.533 339.913 285.795C339.209 285.039 338.247 284.661 337.028 284.661C335.792 284.661 334.804 285.048 334.066 285.82C333.344 286.593 332.984 287.718 332.984 289.195V297H330.64V282.884H332.984V284.893C333.447 284.172 334.074 283.614 334.864 283.219C335.671 282.824 336.556 282.626 337.517 282.626ZM356.844 284.816V293.136C356.844 293.823 356.99 294.312 357.282 294.604C357.573 294.879 358.08 295.017 358.801 295.017H360.527V297H358.415C357.11 297 356.131 296.699 355.478 296.098C354.826 295.497 354.499 294.51 354.499 293.136V284.816H352.671V282.884H354.499V279.329H356.844V282.884H360.527V284.816H356.844ZM370.374 282.626C371.439 282.626 372.401 282.858 373.259 283.322C374.118 283.768 374.788 284.446 375.268 285.357C375.766 286.267 376.015 287.374 376.015 288.68V297H373.697V289.015C373.697 287.606 373.345 286.533 372.641 285.795C371.937 285.039 370.975 284.661 369.756 284.661C368.519 284.661 367.532 285.048 366.793 285.82C366.072 286.593 365.712 287.718 365.712 289.195V297H363.367V277.938H365.712V284.893C366.175 284.172 366.811 283.614 367.618 283.219C368.442 282.824 369.361 282.626 370.374 282.626ZM392.724 289.401C392.724 289.847 392.699 290.32 392.647 290.818H381.364C381.45 292.209 381.923 293.299 382.781 294.089C383.657 294.862 384.713 295.248 385.95 295.248C386.963 295.248 387.804 295.017 388.474 294.553C389.161 294.072 389.642 293.437 389.917 292.647H392.441C392.063 294.003 391.308 295.111 390.174 295.97C389.041 296.811 387.633 297.232 385.95 297.232C384.61 297.232 383.408 296.931 382.343 296.33C381.296 295.729 380.471 294.879 379.87 293.78C379.269 292.664 378.969 291.376 378.969 289.916C378.969 288.456 379.261 287.177 379.845 286.078C380.428 284.979 381.244 284.137 382.292 283.553C383.356 282.952 384.576 282.652 385.95 282.652C387.289 282.652 388.474 282.944 389.504 283.528C390.535 284.112 391.325 284.919 391.874 285.949C392.441 286.962 392.724 288.113 392.724 289.401ZM390.303 288.911C390.303 288.018 390.105 287.254 389.711 286.619C389.316 285.966 388.775 285.477 388.088 285.151C387.418 284.807 386.671 284.635 385.847 284.635C384.662 284.635 383.648 285.013 382.807 285.769C381.983 286.524 381.51 287.572 381.39 288.911H390.303ZM190.824 321.884L186.419 336H183.998L180.597 324.795L177.197 336H174.776L170.345 321.884H172.741L175.986 333.733L179.49 321.884H181.885L185.311 333.759L188.505 321.884H190.824ZM199.307 336.232C197.984 336.232 196.782 335.931 195.7 335.33C194.636 334.729 193.794 333.879 193.176 332.78C192.575 331.664 192.274 330.376 192.274 328.916C192.274 327.474 192.584 326.203 193.202 325.104C193.837 323.987 194.696 323.137 195.778 322.553C196.86 321.952 198.07 321.652 199.41 321.652C200.749 321.652 201.96 321.952 203.042 322.553C204.124 323.137 204.974 323.979 205.592 325.078C206.228 326.177 206.545 327.456 206.545 328.916C206.545 330.376 206.219 331.664 205.566 332.78C204.931 333.879 204.064 334.729 202.965 335.33C201.866 335.931 200.646 336.232 199.307 336.232ZM199.307 334.171C200.148 334.171 200.938 333.974 201.677 333.579C202.415 333.184 203.008 332.591 203.454 331.801C203.918 331.011 204.15 330.05 204.15 328.916C204.15 327.783 203.926 326.821 203.48 326.031C203.033 325.241 202.449 324.657 201.728 324.279C201.007 323.884 200.226 323.687 199.384 323.687C198.525 323.687 197.735 323.884 197.014 324.279C196.31 324.657 195.743 325.241 195.314 326.031C194.885 326.821 194.67 327.783 194.67 328.916C194.67 330.067 194.876 331.037 195.288 331.827C195.718 332.617 196.284 333.209 196.988 333.604C197.693 333.982 198.465 334.171 199.307 334.171ZM211.971 324.176C212.384 323.369 212.967 322.742 213.723 322.296C214.496 321.849 215.432 321.626 216.531 321.626V324.048H215.913C213.285 324.048 211.971 325.473 211.971 328.324V336H209.627V321.884H211.971V324.176ZM227.119 336L221.581 329.766V336H219.237V316.938H221.581V328.143L227.016 321.884H230.288L223.642 328.916L230.313 336H227.119ZM234.838 324.485C235.302 323.678 235.989 323.009 236.899 322.476C237.826 321.927 238.9 321.652 240.119 321.652C241.373 321.652 242.506 321.952 243.519 322.553C244.55 323.155 245.357 324.005 245.941 325.104C246.524 326.186 246.816 327.448 246.816 328.89C246.816 330.316 246.524 331.587 245.941 332.703C245.357 333.819 244.55 334.686 243.519 335.304C242.506 335.923 241.373 336.232 240.119 336.232C238.917 336.232 237.852 335.966 236.925 335.433C236.015 334.884 235.319 334.205 234.838 333.398V342.698H232.494V321.884H234.838V324.485ZM244.421 328.89C244.421 327.826 244.206 326.898 243.777 326.108C243.347 325.318 242.764 324.717 242.025 324.305C241.304 323.893 240.505 323.687 239.629 323.687C238.771 323.687 237.972 323.902 237.234 324.331C236.513 324.743 235.929 325.353 235.482 326.16C235.053 326.95 234.838 327.869 234.838 328.916C234.838 329.981 235.053 330.917 235.482 331.724C235.929 332.514 236.513 333.124 237.234 333.553C237.972 333.965 238.771 334.171 239.629 334.171C240.505 334.171 241.304 333.965 242.025 333.553C242.764 333.124 243.347 332.514 243.777 331.724C244.206 330.917 244.421 329.972 244.421 328.89ZM252.246 316.938V336H249.902V316.938H252.246ZM255.365 328.89C255.365 327.448 255.657 326.186 256.241 325.104C256.825 324.005 257.624 323.155 258.637 322.553C259.667 321.952 260.809 321.652 262.063 321.652C263.299 321.652 264.373 321.918 265.283 322.45C266.193 322.983 266.871 323.653 267.318 324.46V321.884H269.688V336H267.318V333.373C266.854 334.197 266.159 334.884 265.231 335.433C264.321 335.966 263.256 336.232 262.037 336.232C260.783 336.232 259.65 335.923 258.637 335.304C257.624 334.686 256.825 333.819 256.241 332.703C255.657 331.587 255.365 330.316 255.365 328.89ZM267.318 328.916C267.318 327.851 267.103 326.924 266.674 326.134C266.244 325.344 265.661 324.743 264.922 324.331C264.201 323.902 263.402 323.687 262.526 323.687C261.651 323.687 260.852 323.893 260.131 324.305C259.41 324.717 258.834 325.318 258.405 326.108C257.976 326.898 257.761 327.826 257.761 328.89C257.761 329.972 257.976 330.917 258.405 331.724C258.834 332.514 259.41 333.124 260.131 333.553C260.852 333.965 261.651 334.171 262.526 334.171C263.402 334.171 264.201 333.965 264.922 333.553C265.661 333.124 266.244 332.514 266.674 331.724C267.103 330.917 267.318 329.981 267.318 328.916ZM272.773 328.916C272.773 327.456 273.065 326.186 273.649 325.104C274.233 324.005 275.04 323.155 276.07 322.553C277.118 321.952 278.312 321.652 279.651 321.652C281.385 321.652 282.811 322.073 283.927 322.914C285.061 323.756 285.808 324.923 286.168 326.417H283.644C283.403 325.559 282.931 324.88 282.227 324.382C281.54 323.884 280.681 323.635 279.651 323.635C278.312 323.635 277.23 324.099 276.405 325.026C275.581 325.937 275.169 327.233 275.169 328.916C275.169 330.616 275.581 331.93 276.405 332.857C277.23 333.785 278.312 334.248 279.651 334.248C280.681 334.248 281.54 334.008 282.227 333.527C282.914 333.046 283.386 332.359 283.644 331.466H286.168C285.79 332.909 285.035 334.068 283.901 334.944C282.768 335.803 281.351 336.232 279.651 336.232C278.312 336.232 277.118 335.931 276.07 335.33C275.04 334.729 274.233 333.879 273.649 332.78C273.065 331.681 272.773 330.393 272.773 328.916ZM302.176 328.401C302.176 328.847 302.15 329.32 302.099 329.818H290.816C290.902 331.209 291.374 332.299 292.233 333.089C293.108 333.862 294.165 334.248 295.401 334.248C296.414 334.248 297.256 334.017 297.925 333.553C298.612 333.072 299.093 332.437 299.368 331.647H301.892C301.515 333.003 300.759 334.111 299.626 334.97C298.492 335.811 297.084 336.232 295.401 336.232C294.062 336.232 292.859 335.931 291.795 335.33C290.747 334.729 289.923 333.879 289.322 332.78C288.721 331.664 288.42 330.376 288.42 328.916C288.42 327.456 288.712 326.177 289.296 325.078C289.88 323.979 290.696 323.137 291.743 322.553C292.808 321.952 294.027 321.652 295.401 321.652C296.741 321.652 297.925 321.944 298.956 322.528C299.986 323.112 300.776 323.919 301.326 324.949C301.892 325.962 302.176 327.113 302.176 328.401ZM299.754 327.911C299.754 327.018 299.557 326.254 299.162 325.619C298.767 324.966 298.226 324.477 297.539 324.151C296.869 323.807 296.122 323.635 295.298 323.635C294.113 323.635 293.1 324.013 292.258 324.769C291.434 325.524 290.962 326.572 290.842 327.911H299.754ZM306.017 336.155C305.57 336.155 305.193 336 304.884 335.691C304.574 335.382 304.42 335.004 304.42 334.557C304.42 334.111 304.574 333.733 304.884 333.424C305.193 333.115 305.57 332.96 306.017 332.96C306.446 332.96 306.807 333.115 307.099 333.424C307.408 333.733 307.563 334.111 307.563 334.557C307.563 335.004 307.408 335.382 307.099 335.691C306.807 336 306.446 336.155 306.017 336.155Z" fill="#F2F2F2"/>
<path d="M185.129 148.749L160.841 207H143.908L168.485 150.588H138.392V136.46H185.129V148.749ZM231.106 155.426C230.59 153.039 229.687 151.265 228.396 150.104C227.106 148.878 225.268 148.265 222.881 148.265C219.204 148.265 216.559 149.878 214.946 153.103C213.334 156.264 212.495 161.296 212.431 168.198C213.85 165.941 215.882 164.167 218.527 162.876C221.236 161.586 224.203 160.941 227.429 160.941C233.751 160.941 238.814 162.941 242.62 166.94C246.491 170.94 248.426 176.52 248.426 183.68C248.426 188.389 247.458 192.518 245.523 196.066C243.653 199.614 240.879 202.388 237.202 204.387C233.589 206.387 229.299 207.387 224.332 207.387C214.398 207.387 207.496 204.291 203.625 198.098C199.755 191.841 197.82 182.874 197.82 171.198C197.82 158.941 199.852 149.846 203.916 143.911C208.044 137.912 214.624 134.912 223.655 134.912C228.493 134.912 232.557 135.88 235.847 137.815C239.201 139.686 241.717 142.169 243.394 145.266C245.136 148.362 246.168 151.749 246.491 155.426H231.106ZM223.461 174.004C220.688 174.004 218.365 174.843 216.495 176.52C214.688 178.133 213.785 180.455 213.785 183.487C213.785 186.583 214.624 189.002 216.301 190.744C218.043 192.486 220.494 193.357 223.655 193.357C226.493 193.357 228.719 192.518 230.332 190.841C232.009 189.099 232.847 186.744 232.847 183.777C232.847 180.745 232.041 178.358 230.428 176.617C228.816 174.875 226.493 174.004 223.461 174.004ZM260.784 154.168C260.784 148.943 262.268 144.911 265.236 142.073C268.267 139.234 272.17 137.815 276.944 137.815C281.717 137.815 285.588 139.234 288.555 142.073C291.523 144.911 293.006 148.943 293.006 154.168C293.006 159.393 291.523 163.425 288.555 166.263C285.588 169.101 281.717 170.521 276.944 170.521C272.17 170.521 268.267 169.101 265.236 166.263C262.268 163.425 260.784 159.393 260.784 154.168ZM326.486 138.879L289.233 207H273.267L310.52 138.879H326.486ZM276.847 147.491C273.751 147.491 272.202 149.717 272.202 154.168C272.202 158.554 273.751 160.748 276.847 160.748C278.331 160.748 279.492 160.199 280.33 159.103C281.169 158.006 281.588 156.361 281.588 154.168C281.588 149.717 280.008 147.491 276.847 147.491ZM306.843 191.712C306.843 186.486 308.327 182.455 311.294 179.616C314.262 176.778 318.132 175.359 322.906 175.359C327.679 175.359 331.55 176.778 334.517 179.616C337.485 182.455 338.968 186.486 338.968 191.712C338.968 196.937 337.485 200.968 334.517 203.807C331.55 206.645 327.679 208.064 322.906 208.064C318.132 208.064 314.262 206.645 311.294 203.807C308.327 200.968 306.843 196.937 306.843 191.712ZM322.809 185.035C321.325 185.035 320.164 185.583 319.326 186.68C318.551 187.777 318.164 189.454 318.164 191.712C318.164 196.098 319.713 198.291 322.809 198.291C324.293 198.291 325.454 197.743 326.292 196.646C327.131 195.55 327.55 193.905 327.55 191.712C327.55 189.518 327.131 187.873 326.292 186.777C325.454 185.616 324.293 185.035 322.809 185.035Z" fill="white"/>
<defs>
<radialGradient id="paint0_angular_1411_3139" cx="0" cy="0" r="1" gradientUnits="userSpaceOnUse" gradientTransform="translate(238.5 238) rotate(-92.1) scale(220.937 220.42)">
<stop stop-color="#9B2552"/>
<stop offset="0.31" stop-color="#2E9D86"/>
<stop offset="0.61" stop-color="#8978B5"/>
<stop offset="0.83" stop-color="#5292B2"/>
<stop offset="0.992364" stop-color="#219EBC"/>
</radialGradient>
</defs>
</svg>
