<svg width="478" height="478" viewBox="0 0 478 478" fill="none" xmlns="http://www.w3.org/2000/svg">
<circle opacity="0.25" cx="239" cy="239" r="224" stroke="white" stroke-width="29"/>
<mask id="path-2-outside-1_1411_3157" maskUnits="userSpaceOnUse" x="52.6836" y="15" width="409" height="446" fill="black">
<rect fill="white" x="52.6836" y="15" width="409" height="446"/>
<path d="M239.184 25C275.542 25 311.293 34.3509 343.015 52.1583C374.738 69.9656 401.372 95.6338 420.369 126.708C439.367 157.781 450.092 193.221 451.52 229.637C452.947 266.053 445.029 302.227 428.523 334.699C412.016 367.171 387.474 394.855 357.243 415.103C327.012 435.35 292.104 447.484 255.857 450.343C219.611 453.203 183.238 446.692 150.219 431.435C117.2 416.177 88.6395 392.683 67.2682 363.199L239.184 238L239.184 25Z"/>
</mask>
<path d="M239.184 25C275.542 25 311.293 34.3509 343.015 52.1583C374.738 69.9656 401.372 95.6338 420.369 126.708C439.367 157.781 450.092 193.221 451.52 229.637C452.947 266.053 445.029 302.227 428.523 334.699C412.016 367.171 387.474 394.855 357.243 415.103C327.012 435.35 292.104 447.484 255.857 450.343C219.611 453.203 183.238 446.692 150.219 431.435C117.2 416.177 88.6395 392.683 67.2682 363.199L239.184 238L239.184 25Z" stroke="url(#paint0_angular_1411_3157)" stroke-width="20" mask="url(#path-2-outside-1_1411_3157)"/>
<ellipse cx="239.184" cy="238" rx="212.5" ry="213" fill="black"/>
<path d="M120.427 258.232C119.104 258.232 117.902 257.931 116.82 257.33C115.756 256.729 114.914 255.879 114.296 254.78C113.695 253.664 113.394 252.376 113.394 250.916C113.394 249.474 113.703 248.203 114.322 247.104C114.957 245.987 115.816 245.137 116.898 244.553C117.98 243.952 119.19 243.652 120.53 243.652C121.869 243.652 123.08 243.952 124.162 244.553C125.244 245.137 126.094 245.979 126.712 247.078C127.347 248.177 127.665 249.456 127.665 250.916C127.665 252.376 127.339 253.664 126.686 254.78C126.051 255.879 125.184 256.729 124.085 257.33C122.985 257.931 121.766 258.232 120.427 258.232ZM120.427 256.171C121.268 256.171 122.058 255.974 122.797 255.579C123.535 255.184 124.127 254.591 124.574 253.801C125.038 253.011 125.269 252.05 125.269 250.916C125.269 249.783 125.046 248.821 124.6 248.031C124.153 247.241 123.569 246.657 122.848 246.279C122.127 245.884 121.345 245.687 120.504 245.687C119.645 245.687 118.855 245.884 118.134 246.279C117.43 246.657 116.863 247.241 116.434 248.031C116.005 248.821 115.79 249.783 115.79 250.916C115.79 252.067 115.996 253.037 116.408 253.827C116.837 254.617 117.404 255.209 118.108 255.604C118.812 255.982 119.585 256.171 120.427 256.171ZM136.492 245.816H133.529V258H131.185V245.816H129.356V243.884H131.185V242.879C131.185 241.299 131.589 240.149 132.396 239.427C133.22 238.689 134.534 238.32 136.337 238.32V240.277C135.307 240.277 134.577 240.483 134.147 240.896C133.735 241.291 133.529 241.952 133.529 242.879V243.884H136.492V245.816ZM159.693 245.249C159.195 244.201 158.474 243.394 157.53 242.828C156.585 242.244 155.486 241.952 154.232 241.952C152.979 241.952 151.845 242.244 150.832 242.828C149.836 243.394 149.046 244.219 148.462 245.301C147.895 246.365 147.612 247.602 147.612 249.01C147.612 250.418 147.895 251.655 148.462 252.719C149.046 253.784 149.836 254.608 150.832 255.192C151.845 255.759 152.979 256.042 154.232 256.042C155.984 256.042 157.427 255.518 158.56 254.471C159.693 253.423 160.355 252.007 160.543 250.221H153.382V248.314H163.042V250.118C162.905 251.594 162.441 252.951 161.651 254.188C160.861 255.407 159.822 256.377 158.534 257.098C157.246 257.803 155.812 258.155 154.232 258.155C152.567 258.155 151.047 257.768 149.673 256.995C148.299 256.205 147.209 255.115 146.401 253.724C145.611 252.333 145.216 250.762 145.216 249.01C145.216 247.258 145.611 245.687 146.401 244.296C147.209 242.888 148.299 241.797 149.673 241.024C151.047 240.234 152.567 239.839 154.232 239.839C156.139 239.839 157.822 240.312 159.281 241.256C160.758 242.201 161.831 243.532 162.501 245.249H159.693ZM179.021 250.401C179.021 250.847 178.996 251.32 178.944 251.818H167.661C167.747 253.209 168.219 254.299 169.078 255.089C169.954 255.862 171.01 256.248 172.247 256.248C173.26 256.248 174.101 256.017 174.771 255.553C175.458 255.072 175.939 254.437 176.214 253.647H178.738C178.36 255.003 177.605 256.111 176.471 256.97C175.338 257.811 173.93 258.232 172.247 258.232C170.907 258.232 169.705 257.931 168.64 257.33C167.593 256.729 166.768 255.879 166.167 254.78C165.566 253.664 165.266 252.376 165.266 250.916C165.266 249.456 165.558 248.177 166.142 247.078C166.725 245.979 167.541 245.137 168.589 244.553C169.653 243.952 170.873 243.652 172.247 243.652C173.586 243.652 174.771 243.944 175.801 244.528C176.832 245.112 177.622 245.919 178.171 246.949C178.738 247.962 179.021 249.113 179.021 250.401ZM176.6 249.911C176.6 249.018 176.402 248.254 176.007 247.619C175.612 246.966 175.072 246.477 174.385 246.151C173.715 245.807 172.968 245.635 172.144 245.635C170.959 245.635 169.945 246.013 169.104 246.769C168.28 247.524 167.807 248.572 167.687 249.911H176.6ZM188.993 243.626C190.711 243.626 192.102 244.15 193.166 245.197C194.231 246.228 194.763 247.722 194.763 249.68V258H192.445V250.015C192.445 248.606 192.093 247.533 191.389 246.795C190.685 246.039 189.723 245.661 188.504 245.661C187.267 245.661 186.28 246.048 185.542 246.82C184.82 247.593 184.46 248.718 184.46 250.195V258H182.116V243.884H184.46V245.893C184.923 245.172 185.55 244.614 186.34 244.219C187.147 243.824 188.032 243.626 188.993 243.626ZM207.444 255.965H216.202V258H204.662V256.145L213.368 242.081H204.765V240.046H216.15V241.9L207.444 255.965ZM227.475 241.591C227.028 241.591 226.65 241.437 226.341 241.127C226.032 240.818 225.878 240.441 225.878 239.994C225.878 239.548 226.032 239.17 226.341 238.861C226.65 238.551 227.028 238.397 227.475 238.397C227.904 238.397 228.265 238.551 228.557 238.861C228.866 239.17 229.02 239.548 229.02 239.994C229.02 240.441 228.866 240.818 228.557 241.127C228.265 241.437 227.904 241.591 227.475 241.591ZM228.608 243.884V258H226.264V243.884H228.608ZM239.481 243.626C241.198 243.626 242.59 244.15 243.654 245.197C244.719 246.228 245.251 247.722 245.251 249.68V258H242.933V250.015C242.933 248.606 242.581 247.533 241.877 246.795C241.173 246.039 240.211 245.661 238.992 245.661C237.755 245.661 236.768 246.048 236.029 246.82C235.308 247.593 234.947 248.718 234.947 250.195V258H232.603V243.884H234.947V245.893C235.411 245.172 236.038 244.614 236.828 244.219C237.635 243.824 238.519 243.626 239.481 243.626ZM248.205 250.89C248.205 249.448 248.497 248.186 249.08 247.104C249.664 246.005 250.463 245.155 251.476 244.553C252.506 243.952 253.657 243.652 254.928 243.652C256.027 243.652 257.049 243.909 257.993 244.425C258.938 244.923 259.659 245.584 260.157 246.408V238.938H262.527V258H260.157V255.347C259.693 256.188 259.006 256.884 258.096 257.433C257.186 257.966 256.121 258.232 254.902 258.232C253.648 258.232 252.506 257.923 251.476 257.304C250.463 256.686 249.664 255.819 249.08 254.703C248.497 253.587 248.205 252.316 248.205 250.89ZM260.157 250.916C260.157 249.851 259.942 248.924 259.513 248.134C259.084 247.344 258.5 246.743 257.761 246.331C257.04 245.902 256.242 245.687 255.366 245.687C254.49 245.687 253.691 245.893 252.97 246.305C252.249 246.717 251.674 247.318 251.244 248.108C250.815 248.898 250.6 249.826 250.6 250.89C250.6 251.972 250.815 252.917 251.244 253.724C251.674 254.514 252.249 255.124 252.97 255.553C253.691 255.965 254.49 256.171 255.366 256.171C256.242 256.171 257.04 255.965 257.761 255.553C258.5 255.124 259.084 254.514 259.513 253.724C259.942 252.917 260.157 251.981 260.157 250.916ZM267.699 241.591C267.253 241.591 266.875 241.437 266.566 241.127C266.256 240.818 266.102 240.441 266.102 239.994C266.102 239.548 266.256 239.17 266.566 238.861C266.875 238.551 267.253 238.397 267.699 238.397C268.128 238.397 268.489 238.551 268.781 238.861C269.09 239.17 269.245 239.548 269.245 239.994C269.245 240.441 269.09 240.818 268.781 241.127C268.489 241.437 268.128 241.591 267.699 241.591ZM268.832 243.884V258H266.488V243.884H268.832ZM278.083 255.836L282.462 243.884H284.96L279.422 258H276.692L271.153 243.884H273.678L278.083 255.836ZM288.478 241.591C288.031 241.591 287.653 241.437 287.344 241.127C287.035 240.818 286.881 240.441 286.881 239.994C286.881 239.548 287.035 239.17 287.344 238.861C287.653 238.551 288.031 238.397 288.478 238.397C288.907 238.397 289.268 238.551 289.56 238.861C289.869 239.17 290.023 239.548 290.023 239.994C290.023 240.441 289.869 240.818 289.56 241.127C289.268 241.437 288.907 241.591 288.478 241.591ZM289.611 243.884V258H287.267V243.884H289.611ZM292.731 250.89C292.731 249.448 293.022 248.186 293.606 247.104C294.19 246.005 294.989 245.155 296.002 244.553C297.032 243.952 298.183 243.652 299.454 243.652C300.553 243.652 301.575 243.909 302.519 244.425C303.464 244.923 304.185 245.584 304.683 246.408V238.938H307.053V258H304.683V255.347C304.219 256.188 303.532 256.884 302.622 257.433C301.712 257.966 300.647 258.232 299.428 258.232C298.174 258.232 297.032 257.923 296.002 257.304C294.989 256.686 294.19 255.819 293.606 254.703C293.022 253.587 292.731 252.316 292.731 250.89ZM304.683 250.916C304.683 249.851 304.468 248.924 304.039 248.134C303.61 247.344 303.026 246.743 302.287 246.331C301.566 245.902 300.768 245.687 299.892 245.687C299.016 245.687 298.217 245.893 297.496 246.305C296.775 246.717 296.199 247.318 295.77 248.108C295.341 248.898 295.126 249.826 295.126 250.89C295.126 251.972 295.341 252.917 295.77 253.724C296.199 254.514 296.775 255.124 297.496 255.553C298.217 255.965 299.016 256.171 299.892 256.171C300.768 256.171 301.566 255.965 302.287 255.553C303.026 255.124 303.61 254.514 304.039 253.724C304.468 252.917 304.683 251.981 304.683 250.916ZM323.533 243.884V258H321.189V255.913C320.743 256.635 320.116 257.201 319.309 257.614C318.519 258.009 317.643 258.206 316.681 258.206C315.582 258.206 314.595 257.983 313.719 257.536C312.843 257.073 312.148 256.386 311.632 255.476C311.134 254.565 310.885 253.458 310.885 252.153V243.884H313.204V251.843C313.204 253.234 313.556 254.308 314.26 255.063C314.964 255.802 315.926 256.171 317.145 256.171C318.399 256.171 319.386 255.785 320.107 255.012C320.829 254.239 321.189 253.114 321.189 251.637V243.884H323.533ZM326.616 250.89C326.616 249.448 326.907 248.186 327.491 247.104C328.075 246.005 328.874 245.155 329.887 244.553C330.917 243.952 332.059 243.652 333.313 243.652C334.549 243.652 335.623 243.918 336.533 244.45C337.443 244.983 338.121 245.653 338.568 246.46V243.884H340.938V258H338.568V255.373C338.104 256.197 337.409 256.884 336.481 257.433C335.571 257.966 334.507 258.232 333.287 258.232C332.034 258.232 330.9 257.923 329.887 257.304C328.874 256.686 328.075 255.819 327.491 254.703C326.907 253.587 326.616 252.316 326.616 250.89ZM338.568 250.916C338.568 249.851 338.353 248.924 337.924 248.134C337.495 247.344 336.911 246.743 336.172 246.331C335.451 245.902 334.653 245.687 333.777 245.687C332.901 245.687 332.102 245.893 331.381 246.305C330.66 246.717 330.084 247.318 329.655 248.108C329.226 248.898 329.011 249.826 329.011 250.89C329.011 251.972 329.226 252.917 329.655 253.724C330.084 254.514 330.66 255.124 331.381 255.553C332.102 255.965 332.901 256.171 333.777 256.171C334.653 256.171 335.451 255.965 336.172 255.553C336.911 255.124 337.495 254.514 337.924 253.724C338.353 252.917 338.568 251.981 338.568 250.916ZM347.243 238.938V258H344.899V238.938H347.243ZM356.236 258.232C355.154 258.232 354.184 258.052 353.325 257.691C352.466 257.313 351.788 256.798 351.29 256.145C350.792 255.476 350.517 254.711 350.466 253.853H352.887C352.956 254.557 353.282 255.132 353.866 255.579C354.467 256.025 355.248 256.248 356.21 256.248C357.103 256.248 357.807 256.051 358.322 255.656C358.838 255.261 359.095 254.763 359.095 254.162C359.095 253.544 358.82 253.088 358.271 252.797C357.721 252.487 356.871 252.187 355.721 251.895C354.673 251.62 353.814 251.345 353.145 251.071C352.492 250.779 351.925 250.358 351.445 249.808C350.981 249.242 350.749 248.503 350.749 247.593C350.749 246.872 350.964 246.211 351.393 245.61C351.822 245.009 352.432 244.536 353.222 244.193C354.012 243.832 354.914 243.652 355.927 243.652C357.489 243.652 358.752 244.047 359.713 244.837C360.675 245.627 361.19 246.709 361.259 248.083H358.915C358.863 247.344 358.563 246.752 358.013 246.305C357.481 245.859 356.76 245.635 355.849 245.635C355.008 245.635 354.338 245.816 353.84 246.176C353.342 246.537 353.093 247.009 353.093 247.593C353.093 248.057 353.239 248.443 353.531 248.752C353.84 249.044 354.218 249.285 354.664 249.474C355.128 249.645 355.764 249.843 356.571 250.066C357.584 250.341 358.408 250.616 359.044 250.89C359.679 251.148 360.22 251.543 360.666 252.075C361.13 252.608 361.371 253.303 361.388 254.162C361.388 254.935 361.173 255.63 360.744 256.248C360.314 256.867 359.705 257.356 358.915 257.717C358.142 258.06 357.249 258.232 356.236 258.232ZM72.4524 297.232C71.3705 297.232 70.4002 297.052 69.5416 296.691C68.6829 296.313 68.0046 295.798 67.5066 295.145C67.0085 294.476 66.7338 293.711 66.6822 292.853H69.1036C69.1723 293.557 69.4986 294.132 70.0825 294.579C70.6836 295.025 71.4649 295.248 72.4266 295.248C73.3196 295.248 74.0237 295.051 74.5389 294.656C75.0541 294.261 75.3117 293.763 75.3117 293.162C75.3117 292.544 75.0369 292.088 74.4874 291.797C73.9379 291.487 73.0878 291.187 71.9372 290.895C70.8896 290.62 70.031 290.345 69.3612 290.071C68.7087 289.779 68.142 289.358 67.6611 288.808C67.1974 288.242 66.9656 287.503 66.9656 286.593C66.9656 285.872 67.1803 285.211 67.6096 284.61C68.0389 284.009 68.6486 283.536 69.4385 283.193C70.2285 282.832 71.1301 282.652 72.1433 282.652C73.706 282.652 74.9683 283.047 75.9299 283.837C76.8916 284.627 77.4068 285.709 77.4755 287.083H75.1314C75.0799 286.344 74.7794 285.752 74.2298 285.305C73.6974 284.859 72.9762 284.635 72.066 284.635C71.2245 284.635 70.5548 284.816 70.0568 285.176C69.5587 285.537 69.3097 286.009 69.3097 286.593C69.3097 287.057 69.4557 287.443 69.7476 287.752C70.0568 288.044 70.4346 288.285 70.8811 288.474C71.3447 288.645 71.9801 288.843 72.7873 289.066C73.8005 289.341 74.6248 289.616 75.2602 289.89C75.8956 290.148 76.4366 290.543 76.8831 291.075C77.3467 291.608 77.5871 292.303 77.6043 293.162C77.6043 293.935 77.3897 294.63 76.9603 295.248C76.531 295.867 75.9214 296.356 75.1314 296.717C74.3586 297.06 73.4656 297.232 72.4524 297.232ZM83.7727 284.816V293.136C83.7727 293.823 83.9187 294.312 84.2107 294.604C84.5026 294.879 85.0092 295.017 85.7305 295.017H87.4564V297H85.3441C84.0389 297 83.0601 296.699 82.4075 296.098C81.7549 295.497 81.4286 294.51 81.4286 293.136V284.816H79.5997V282.884H81.4286V279.329H83.7727V282.884H87.4564V284.816H83.7727ZM92.6407 285.176C93.0528 284.369 93.6367 283.742 94.3923 283.296C95.1651 282.849 96.1011 282.626 97.2001 282.626V285.048H96.5819C93.9544 285.048 92.6407 286.473 92.6407 289.324V297H90.2966V282.884H92.6407V285.176ZM112.425 282.884V297H110.081V294.913C109.635 295.635 109.008 296.201 108.201 296.614C107.411 297.009 106.535 297.206 105.573 297.206C104.474 297.206 103.487 296.983 102.611 296.536C101.735 296.073 101.04 295.386 100.524 294.476C100.026 293.565 99.7773 292.458 99.7773 291.153V282.884H102.096V290.843C102.096 292.234 102.448 293.308 103.152 294.063C103.856 294.802 104.818 295.171 106.037 295.171C107.291 295.171 108.278 294.785 108.999 294.012C109.721 293.239 110.081 292.114 110.081 290.637V282.884H112.425ZM122.205 282.652C123.424 282.652 124.489 282.918 125.399 283.45C126.326 283.983 127.013 284.653 127.46 285.46V282.884H129.83V297.309C129.83 298.597 129.555 299.739 129.005 300.735C128.456 301.748 127.666 302.538 126.636 303.105C125.622 303.672 124.437 303.955 123.081 303.955C121.226 303.955 119.68 303.517 118.444 302.641C117.208 301.766 116.478 300.572 116.254 299.061H118.573C118.83 299.919 119.363 300.606 120.17 301.122C120.977 301.654 121.947 301.92 123.081 301.92C124.369 301.92 125.416 301.517 126.223 300.709C127.048 299.902 127.46 298.769 127.46 297.309V294.347C126.996 295.171 126.309 295.858 125.399 296.408C124.489 296.957 123.424 297.232 122.205 297.232C120.951 297.232 119.809 296.923 118.779 296.304C117.766 295.686 116.967 294.819 116.383 293.703C115.799 292.587 115.507 291.316 115.507 289.89C115.507 288.448 115.799 287.186 116.383 286.104C116.967 285.005 117.766 284.155 118.779 283.553C119.809 282.952 120.951 282.652 122.205 282.652ZM127.46 289.916C127.46 288.851 127.245 287.924 126.816 287.134C126.387 286.344 125.803 285.743 125.064 285.331C124.343 284.902 123.544 284.687 122.669 284.687C121.793 284.687 120.994 284.893 120.273 285.305C119.552 285.717 118.976 286.318 118.547 287.108C118.118 287.898 117.903 288.826 117.903 289.89C117.903 290.972 118.118 291.917 118.547 292.724C118.976 293.514 119.552 294.124 120.273 294.553C120.994 294.965 121.793 295.171 122.669 295.171C123.544 295.171 124.343 294.965 125.064 294.553C125.803 294.124 126.387 293.514 126.816 292.724C127.245 291.917 127.46 290.981 127.46 289.916ZM139.613 282.652C140.832 282.652 141.897 282.918 142.807 283.45C143.734 283.983 144.421 284.653 144.868 285.46V282.884H147.238V297.309C147.238 298.597 146.963 299.739 146.413 300.735C145.864 301.748 145.074 302.538 144.043 303.105C143.03 303.672 141.845 303.955 140.489 303.955C138.634 303.955 137.088 303.517 135.852 302.641C134.615 301.766 133.886 300.572 133.662 299.061H135.981C136.238 299.919 136.771 300.606 137.578 301.122C138.385 301.654 139.355 301.92 140.489 301.92C141.777 301.92 142.824 301.517 143.631 300.709C144.456 299.902 144.868 298.769 144.868 297.309V294.347C144.404 295.171 143.717 295.858 142.807 296.408C141.897 296.957 140.832 297.232 139.613 297.232C138.359 297.232 137.217 296.923 136.187 296.304C135.174 295.686 134.375 294.819 133.791 293.703C133.207 292.587 132.915 291.316 132.915 289.89C132.915 288.448 133.207 287.186 133.791 286.104C134.375 285.005 135.174 284.155 136.187 283.553C137.217 282.952 138.359 282.652 139.613 282.652ZM144.868 289.916C144.868 288.851 144.653 287.924 144.224 287.134C143.794 286.344 143.211 285.743 142.472 285.331C141.751 284.902 140.952 284.687 140.076 284.687C139.201 284.687 138.402 284.893 137.681 285.305C136.96 285.717 136.384 286.318 135.955 287.108C135.526 287.898 135.311 288.826 135.311 289.89C135.311 290.972 135.526 291.917 135.955 292.724C136.384 293.514 136.96 294.124 137.681 294.553C138.402 294.965 139.201 295.171 140.076 295.171C140.952 295.171 141.751 294.965 142.472 294.553C143.211 294.124 143.794 293.514 144.224 292.724C144.653 291.917 144.868 290.981 144.868 289.916ZM153.543 277.938V297H151.199V277.938H153.543ZM170.418 289.401C170.418 289.847 170.392 290.32 170.341 290.818H159.058C159.144 292.209 159.616 293.299 160.475 294.089C161.351 294.862 162.407 295.248 163.643 295.248C164.656 295.248 165.498 295.017 166.168 294.553C166.855 294.072 167.335 293.437 167.61 292.647H170.135C169.757 294.003 169.001 295.111 167.868 295.97C166.734 296.811 165.326 297.232 163.643 297.232C162.304 297.232 161.102 296.931 160.037 296.33C158.989 295.729 158.165 294.879 157.564 293.78C156.963 292.664 156.662 291.376 156.662 289.916C156.662 288.456 156.954 287.177 157.538 286.078C158.122 284.979 158.938 284.137 159.985 283.553C161.05 282.952 162.269 282.652 163.643 282.652C164.983 282.652 166.168 282.944 167.198 283.528C168.228 284.112 169.018 284.919 169.568 285.949C170.135 286.962 170.418 288.113 170.418 289.401ZM167.997 288.911C167.997 288.018 167.799 287.254 167.404 286.619C167.009 285.966 166.468 285.477 165.781 285.151C165.112 284.807 164.365 284.635 163.54 284.635C162.355 284.635 161.342 285.013 160.501 285.769C159.676 286.524 159.204 287.572 159.084 288.911H167.997ZM199.184 282.884L194.779 297H192.358L188.958 285.795L185.557 297H183.136L178.705 282.884H181.101L184.347 294.733L187.85 282.884H190.246L193.672 294.759L196.866 282.884H199.184ZM202.721 280.591C202.275 280.591 201.897 280.437 201.588 280.127C201.279 279.818 201.124 279.441 201.124 278.994C201.124 278.548 201.279 278.17 201.588 277.861C201.897 277.551 202.275 277.397 202.721 277.397C203.151 277.397 203.511 277.551 203.803 277.861C204.112 278.17 204.267 278.548 204.267 278.994C204.267 279.441 204.112 279.818 203.803 280.127C203.511 280.437 203.151 280.591 202.721 280.591ZM203.855 282.884V297H201.511V282.884H203.855ZM210.709 284.816V293.136C210.709 293.823 210.855 294.312 211.147 294.604C211.439 294.879 211.946 295.017 212.667 295.017H214.393V297H212.281C210.975 297 209.997 296.699 209.344 296.098C208.691 295.497 208.365 294.51 208.365 293.136V284.816H206.536V282.884H208.365V279.329H210.709V282.884H214.393V284.816H210.709ZM224.24 282.626C225.304 282.626 226.266 282.858 227.125 283.322C227.983 283.768 228.653 284.446 229.134 285.357C229.632 286.267 229.881 287.374 229.881 288.68V297H227.563V289.015C227.563 287.606 227.211 286.533 226.507 285.795C225.802 285.039 224.841 284.661 223.621 284.661C222.385 284.661 221.398 285.048 220.659 285.82C219.938 286.593 219.577 287.718 219.577 289.195V297H217.233V277.938H219.577V284.893C220.041 284.172 220.676 283.614 221.483 283.219C222.308 282.824 223.227 282.626 224.24 282.626ZM241.788 280.591C241.342 280.591 240.964 280.437 240.655 280.127C240.346 279.818 240.191 279.441 240.191 278.994C240.191 278.548 240.346 278.17 240.655 277.861C240.964 277.551 241.342 277.397 241.788 277.397C242.218 277.397 242.578 277.551 242.87 277.861C243.179 278.17 243.334 278.548 243.334 278.994C243.334 279.441 243.179 279.818 242.87 280.127C242.578 280.437 242.218 280.591 241.788 280.591ZM242.922 282.884V297H240.578V282.884H242.922ZM253.795 282.626C255.512 282.626 256.903 283.15 257.968 284.197C259.033 285.228 259.565 286.722 259.565 288.68V297H257.247V289.015C257.247 287.606 256.895 286.533 256.191 285.795C255.486 285.039 254.525 284.661 253.305 284.661C252.069 284.661 251.082 285.048 250.343 285.82C249.622 286.593 249.261 287.718 249.261 289.195V297H246.917V282.884H249.261V284.893C249.725 284.172 250.352 283.614 251.142 283.219C251.949 282.824 252.833 282.626 253.795 282.626ZM266.253 284.816V293.136C266.253 293.823 266.399 294.312 266.691 294.604C266.983 294.879 267.49 295.017 268.211 295.017H269.937V297H267.825C266.52 297 265.541 296.699 264.888 296.098C264.236 295.497 263.909 294.51 263.909 293.136V284.816H262.08V282.884H263.909V279.329H266.253V282.884H269.937V284.816H266.253ZM285.657 289.401C285.657 289.847 285.631 290.32 285.58 290.818H274.297C274.383 292.209 274.855 293.299 275.714 294.089C276.59 294.862 277.646 295.248 278.882 295.248C279.896 295.248 280.737 295.017 281.407 294.553C282.094 294.072 282.575 293.437 282.849 292.647H285.374C284.996 294.003 284.24 295.111 283.107 295.97C281.973 296.811 280.565 297.232 278.882 297.232C277.543 297.232 276.341 296.931 275.276 296.33C274.228 295.729 273.404 294.879 272.803 293.78C272.202 292.664 271.901 291.376 271.901 289.916C271.901 288.456 272.193 287.177 272.777 286.078C273.361 284.979 274.177 284.137 275.224 283.553C276.289 282.952 277.508 282.652 278.882 282.652C280.222 282.652 281.407 282.944 282.437 283.528C283.468 284.112 284.257 284.919 284.807 285.949C285.374 286.962 285.657 288.113 285.657 289.401ZM283.236 288.911C283.236 288.018 283.038 287.254 282.643 286.619C282.248 285.966 281.707 285.477 281.02 285.151C280.351 284.807 279.604 284.635 278.779 284.635C277.594 284.635 276.581 285.013 275.74 285.769C274.915 286.524 274.443 287.572 274.323 288.911H283.236ZM291.095 285.176C291.508 284.369 292.091 283.742 292.847 283.296C293.62 282.849 294.556 282.626 295.655 282.626V285.048H295.037C292.409 285.048 291.095 286.473 291.095 289.324V297H288.751V282.884H291.095V285.176ZM300.705 285.485C301.169 284.678 301.856 284.009 302.766 283.476C303.693 282.927 304.766 282.652 305.986 282.652C307.239 282.652 308.373 282.952 309.386 283.553C310.416 284.155 311.223 285.005 311.807 286.104C312.391 287.186 312.683 288.448 312.683 289.89C312.683 291.316 312.391 292.587 311.807 293.703C311.223 294.819 310.416 295.686 309.386 296.304C308.373 296.923 307.239 297.232 305.986 297.232C304.784 297.232 303.719 296.966 302.791 296.433C301.881 295.884 301.186 295.205 300.705 294.398V303.698H298.361V282.884H300.705V285.485ZM310.288 289.89C310.288 288.826 310.073 287.898 309.644 287.108C309.214 286.318 308.63 285.717 307.892 285.305C307.171 284.893 306.372 284.687 305.496 284.687C304.638 284.687 303.839 284.902 303.101 285.331C302.379 285.743 301.795 286.353 301.349 287.16C300.92 287.95 300.705 288.869 300.705 289.916C300.705 290.981 300.92 291.917 301.349 292.724C301.795 293.514 302.379 294.124 303.101 294.553C303.839 294.965 304.638 295.171 305.496 295.171C306.372 295.171 307.171 294.965 307.892 294.553C308.63 294.124 309.214 293.514 309.644 292.724C310.073 291.917 310.288 290.972 310.288 289.89ZM328.648 289.401C328.648 289.847 328.623 290.32 328.571 290.818H317.288C317.374 292.209 317.847 293.299 318.705 294.089C319.581 294.862 320.637 295.248 321.874 295.248C322.887 295.248 323.728 295.017 324.398 294.553C325.085 294.072 325.566 293.437 325.841 292.647H328.365C327.987 294.003 327.232 295.111 326.098 295.97C324.965 296.811 323.557 297.232 321.874 297.232C320.534 297.232 319.332 296.931 318.267 296.33C317.22 295.729 316.395 294.879 315.794 293.78C315.193 292.664 314.893 291.376 314.893 289.916C314.893 288.456 315.185 287.177 315.769 286.078C316.353 284.979 317.168 284.137 318.216 283.553C319.281 282.952 320.5 282.652 321.874 282.652C323.213 282.652 324.398 282.944 325.429 283.528C326.459 284.112 327.249 284.919 327.798 285.949C328.365 286.962 328.648 288.113 328.648 289.401ZM326.227 288.911C326.227 288.018 326.03 287.254 325.635 286.619C325.24 285.966 324.699 285.477 324.012 285.151C323.342 284.807 322.595 284.635 321.771 284.635C320.586 284.635 319.573 285.013 318.731 285.769C317.907 286.524 317.434 287.572 317.314 288.911H326.227ZM334.087 285.176C334.499 284.369 335.083 283.742 335.838 283.296C336.611 282.849 337.547 282.626 338.646 282.626V285.048H338.028C335.401 285.048 334.087 286.473 334.087 289.324V297H331.743V282.884H334.087V285.176ZM346.35 297.232C345.268 297.232 344.297 297.052 343.439 296.691C342.58 296.313 341.902 295.798 341.404 295.145C340.906 294.476 340.631 293.711 340.579 292.853H343.001C343.07 293.557 343.396 294.132 343.98 294.579C344.581 295.025 345.362 295.248 346.324 295.248C347.217 295.248 347.921 295.051 348.436 294.656C348.951 294.261 349.209 293.763 349.209 293.162C349.209 292.544 348.934 292.088 348.385 291.797C347.835 291.487 346.985 291.187 345.834 290.895C344.787 290.62 343.928 290.345 343.258 290.071C342.606 289.779 342.039 289.358 341.558 288.808C341.095 288.242 340.863 287.503 340.863 286.593C340.863 285.872 341.077 285.211 341.507 284.61C341.936 284.009 342.546 283.536 343.336 283.193C344.126 282.832 345.027 282.652 346.04 282.652C347.603 282.652 348.865 283.047 349.827 283.837C350.789 284.627 351.304 285.709 351.373 287.083H349.029C348.977 286.344 348.677 285.752 348.127 285.305C347.595 284.859 346.873 284.635 345.963 284.635C345.122 284.635 344.452 284.816 343.954 285.176C343.456 285.537 343.207 286.009 343.207 286.593C343.207 287.057 343.353 287.443 343.645 287.752C343.954 288.044 344.332 288.285 344.778 288.474C345.242 288.645 345.877 288.843 346.684 289.066C347.698 289.341 348.522 289.616 349.157 289.89C349.793 290.148 350.334 290.543 350.78 291.075C351.244 291.608 351.484 292.303 351.501 293.162C351.501 293.935 351.287 294.63 350.858 295.248C350.428 295.867 349.819 296.356 349.029 296.717C348.256 297.06 347.363 297.232 346.35 297.232ZM360.967 297.232C359.645 297.232 358.443 296.931 357.361 296.33C356.296 295.729 355.455 294.879 354.836 293.78C354.235 292.664 353.935 291.376 353.935 289.916C353.935 288.474 354.244 287.203 354.862 286.104C355.498 284.987 356.356 284.137 357.438 283.553C358.52 282.952 359.731 282.652 361.07 282.652C362.41 282.652 363.62 282.952 364.702 283.553C365.784 284.137 366.634 284.979 367.252 286.078C367.888 287.177 368.206 288.456 368.206 289.916C368.206 291.376 367.879 292.664 367.227 293.78C366.591 294.879 365.724 295.729 364.625 296.33C363.526 296.931 362.307 297.232 360.967 297.232ZM360.967 295.171C361.809 295.171 362.599 294.974 363.337 294.579C364.075 294.184 364.668 293.591 365.114 292.801C365.578 292.011 365.81 291.05 365.81 289.916C365.81 288.783 365.587 287.821 365.14 287.031C364.694 286.241 364.11 285.657 363.389 285.279C362.667 284.884 361.886 284.687 361.044 284.687C360.186 284.687 359.396 284.884 358.675 285.279C357.97 285.657 357.404 286.241 356.974 287.031C356.545 287.821 356.33 288.783 356.33 289.916C356.33 291.067 356.536 292.037 356.949 292.827C357.378 293.617 357.945 294.209 358.649 294.604C359.353 294.982 360.126 295.171 360.967 295.171ZM378.166 282.626C379.883 282.626 381.274 283.15 382.339 284.197C383.403 285.228 383.936 286.722 383.936 288.68V297H381.617V289.015C381.617 287.606 381.265 286.533 380.561 285.795C379.857 285.039 378.895 284.661 377.676 284.661C376.44 284.661 375.452 285.048 374.714 285.82C373.992 286.593 373.632 287.718 373.632 289.195V297H371.288V282.884H373.632V284.893C374.095 284.172 374.722 283.614 375.512 283.219C376.319 282.824 377.204 282.626 378.166 282.626ZM386.889 289.89C386.889 288.448 387.181 287.186 387.765 286.104C388.349 285.005 389.147 284.155 390.16 283.553C391.191 282.952 392.333 282.652 393.586 282.652C394.823 282.652 395.896 282.918 396.806 283.45C397.717 283.983 398.395 284.653 398.841 285.46V282.884H401.211V297H398.841V294.373C398.378 295.197 397.682 295.884 396.755 296.433C395.845 296.966 394.78 297.232 393.561 297.232C392.307 297.232 391.174 296.923 390.16 296.304C389.147 295.686 388.349 294.819 387.765 293.703C387.181 292.587 386.889 291.316 386.889 289.89ZM398.841 289.916C398.841 288.851 398.627 287.924 398.197 287.134C397.768 286.344 397.184 285.743 396.446 285.331C395.725 284.902 394.926 284.687 394.05 284.687C393.174 284.687 392.376 284.893 391.655 285.305C390.933 285.717 390.358 286.318 389.929 287.108C389.499 287.898 389.285 288.826 389.285 289.89C389.285 290.972 389.499 291.917 389.929 292.724C390.358 293.514 390.933 294.124 391.655 294.553C392.376 294.965 393.174 295.171 394.05 295.171C394.926 295.171 395.725 294.965 396.446 294.553C397.184 294.124 397.768 293.514 398.197 292.724C398.627 291.917 398.841 290.981 398.841 289.916ZM407.517 277.938V297H405.173V277.938H407.517ZM99.7598 328.916C99.7598 327.456 100.052 326.186 100.636 325.104C101.22 324.005 102.027 323.155 103.057 322.553C104.105 321.952 105.298 321.652 106.638 321.652C108.372 321.652 109.797 322.073 110.914 322.914C112.047 323.756 112.794 324.923 113.155 326.417H110.63C110.39 325.559 109.918 324.88 109.214 324.382C108.527 323.884 107.668 323.635 106.638 323.635C105.298 323.635 104.216 324.099 103.392 325.026C102.568 325.937 102.155 327.233 102.155 328.916C102.155 330.616 102.568 331.93 103.392 332.857C104.216 333.785 105.298 334.248 106.638 334.248C107.668 334.248 108.527 334.008 109.214 333.527C109.901 333.046 110.373 332.359 110.63 331.466H113.155C112.777 332.909 112.021 334.068 110.888 334.944C109.755 335.803 108.338 336.232 106.638 336.232C105.298 336.232 104.105 335.931 103.057 335.33C102.027 334.729 101.22 333.879 100.636 332.78C100.052 331.681 99.7598 330.393 99.7598 328.916ZM122.439 336.232C121.117 336.232 119.915 335.931 118.833 335.33C117.768 334.729 116.927 333.879 116.308 332.78C115.707 331.664 115.407 330.376 115.407 328.916C115.407 327.474 115.716 326.203 116.334 325.104C116.97 323.987 117.828 323.137 118.91 322.553C119.992 321.952 121.203 321.652 122.542 321.652C123.882 321.652 125.092 321.952 126.174 322.553C127.256 323.137 128.106 323.979 128.724 325.078C129.36 326.177 129.678 327.456 129.678 328.916C129.678 330.376 129.351 331.664 128.699 332.78C128.063 333.879 127.196 334.729 126.097 335.33C124.998 335.931 123.779 336.232 122.439 336.232ZM122.439 334.171C123.281 334.171 124.071 333.974 124.809 333.579C125.547 333.184 126.14 332.591 126.586 331.801C127.05 331.011 127.282 330.05 127.282 328.916C127.282 327.783 127.059 326.821 126.612 326.031C126.166 325.241 125.582 324.657 124.861 324.279C124.139 323.884 123.358 323.687 122.516 323.687C121.658 323.687 120.868 323.884 120.147 324.279C119.442 324.657 118.876 325.241 118.446 326.031C118.017 326.821 117.802 327.783 117.802 328.916C117.802 330.067 118.008 331.037 118.421 331.827C118.85 332.617 119.417 333.209 120.121 333.604C120.825 333.982 121.598 334.171 122.439 334.171ZM149.735 321.626C150.834 321.626 151.813 321.858 152.672 322.322C153.531 322.768 154.209 323.446 154.707 324.357C155.205 325.267 155.454 326.374 155.454 327.68V336H153.136V328.015C153.136 326.606 152.783 325.533 152.079 324.795C151.392 324.039 150.457 323.661 149.272 323.661C148.052 323.661 147.082 324.056 146.361 324.846C145.639 325.619 145.279 326.744 145.279 328.221V336H142.96V328.015C142.96 326.606 142.608 325.533 141.904 324.795C141.217 324.039 140.281 323.661 139.097 323.661C137.877 323.661 136.907 324.056 136.186 324.846C135.464 325.619 135.104 326.744 135.104 328.221V336H132.76V321.884H135.104V323.919C135.567 323.18 136.186 322.614 136.959 322.219C137.748 321.824 138.616 321.626 139.56 321.626C140.745 321.626 141.793 321.892 142.703 322.425C143.613 322.957 144.291 323.738 144.738 324.769C145.133 323.773 145.785 323 146.696 322.45C147.606 321.901 148.619 321.626 149.735 321.626ZM176.275 321.626C177.374 321.626 178.353 321.858 179.211 322.322C180.07 322.768 180.748 323.446 181.246 324.357C181.744 325.267 181.993 326.374 181.993 327.68V336H179.675V328.015C179.675 326.606 179.323 325.533 178.619 324.795C177.932 324.039 176.996 323.661 175.811 323.661C174.592 323.661 173.621 324.056 172.9 324.846C172.179 325.619 171.818 326.744 171.818 328.221V336H169.5V328.015C169.5 326.606 169.148 325.533 168.444 324.795C167.757 324.039 166.821 323.661 165.636 323.661C164.417 323.661 163.446 324.056 162.725 324.846C162.004 325.619 161.643 326.744 161.643 328.221V336H159.299V321.884H161.643V323.919C162.107 323.18 162.725 322.614 163.498 322.219C164.288 321.824 165.155 321.626 166.1 321.626C167.285 321.626 168.332 321.892 169.242 322.425C170.153 322.957 170.831 323.738 171.277 324.769C171.672 323.773 172.325 323 173.235 322.45C174.145 321.901 175.158 321.626 176.275 321.626ZM198.358 321.884V336H196.014V333.913C195.567 334.635 194.94 335.201 194.133 335.614C193.343 336.009 192.467 336.206 191.506 336.206C190.407 336.206 189.419 335.983 188.543 335.536C187.668 335.073 186.972 334.386 186.457 333.476C185.959 332.565 185.71 331.458 185.71 330.153V321.884H188.028V329.843C188.028 331.234 188.38 332.308 189.084 333.063C189.788 333.802 190.75 334.171 191.969 334.171C193.223 334.171 194.21 333.785 194.932 333.012C195.653 332.239 196.014 331.114 196.014 329.637V321.884H198.358ZM209.194 321.626C210.911 321.626 212.302 322.15 213.367 323.197C214.431 324.228 214.964 325.722 214.964 327.68V336H212.645V328.015C212.645 326.606 212.293 325.533 211.589 324.795C210.885 324.039 209.923 323.661 208.704 323.661C207.468 323.661 206.48 324.048 205.742 324.82C205.02 325.593 204.66 326.718 204.66 328.195V336H202.316V321.884H204.66V323.893C205.123 323.172 205.75 322.614 206.54 322.219C207.347 321.824 208.232 321.626 209.194 321.626ZM220.003 319.591C219.557 319.591 219.179 319.437 218.87 319.127C218.561 318.818 218.406 318.441 218.406 317.994C218.406 317.548 218.561 317.17 218.87 316.861C219.179 316.551 219.557 316.397 220.003 316.397C220.433 316.397 220.793 316.551 221.085 316.861C221.395 317.17 221.549 317.548 221.549 317.994C221.549 318.441 221.395 318.818 221.085 319.127C220.793 319.437 220.433 319.591 220.003 319.591ZM221.137 321.884V336H218.793V321.884H221.137ZM224.256 328.916C224.256 327.456 224.548 326.186 225.132 325.104C225.716 324.005 226.523 323.155 227.553 322.553C228.601 321.952 229.795 321.652 231.134 321.652C232.869 321.652 234.294 322.073 235.41 322.914C236.544 323.756 237.291 324.923 237.651 326.417H235.127C234.886 325.559 234.414 324.88 233.71 324.382C233.023 323.884 232.164 323.635 231.134 323.635C229.795 323.635 228.713 324.099 227.888 325.026C227.064 325.937 226.652 327.233 226.652 328.916C226.652 330.616 227.064 331.93 227.888 332.857C228.713 333.785 229.795 334.248 231.134 334.248C232.164 334.248 233.023 334.008 233.71 333.527C234.397 333.046 234.869 332.359 235.127 331.466H237.651C237.273 332.909 236.518 334.068 235.384 334.944C234.251 335.803 232.834 336.232 231.134 336.232C229.795 336.232 228.601 335.931 227.553 335.33C226.523 334.729 225.716 333.879 225.132 332.78C224.548 331.681 224.256 330.393 224.256 328.916ZM239.903 328.89C239.903 327.448 240.195 326.186 240.779 325.104C241.363 324.005 242.161 323.155 243.175 322.553C244.205 321.952 245.347 321.652 246.601 321.652C247.837 321.652 248.91 321.918 249.821 322.45C250.731 322.983 251.409 323.653 251.856 324.46V321.884H254.226V336H251.856V333.373C251.392 334.197 250.696 334.884 249.769 335.433C248.859 335.966 247.794 336.232 246.575 336.232C245.321 336.232 244.188 335.923 243.175 335.304C242.161 334.686 241.363 333.819 240.779 332.703C240.195 331.587 239.903 330.316 239.903 328.89ZM251.856 328.916C251.856 327.851 251.641 326.924 251.212 326.134C250.782 325.344 250.198 324.743 249.46 324.331C248.739 323.902 247.94 323.687 247.064 323.687C246.189 323.687 245.39 323.893 244.669 324.305C243.947 324.717 243.372 325.318 242.943 326.108C242.514 326.898 242.299 327.826 242.299 328.89C242.299 329.972 242.514 330.917 242.943 331.724C243.372 332.514 243.947 333.124 244.669 333.553C245.39 333.965 246.189 334.171 247.064 334.171C247.94 334.171 248.739 333.965 249.46 333.553C250.198 333.124 250.782 332.514 251.212 331.724C251.641 330.917 251.856 329.981 251.856 328.916ZM261.046 323.816V332.136C261.046 332.823 261.192 333.312 261.484 333.604C261.776 333.879 262.283 334.017 263.004 334.017H264.73V336H262.618C261.312 336 260.334 335.699 259.681 335.098C259.028 334.497 258.702 333.51 258.702 332.136V323.816H256.873V321.884H258.702V318.329H261.046V321.884H264.73V323.816H261.046ZM268.781 319.591C268.334 319.591 267.956 319.437 267.647 319.127C267.338 318.818 267.184 318.441 267.184 317.994C267.184 317.548 267.338 317.17 267.647 316.861C267.956 316.551 268.334 316.397 268.781 316.397C269.21 316.397 269.571 316.551 269.863 316.861C270.172 317.17 270.326 317.548 270.326 317.994C270.326 318.441 270.172 318.818 269.863 319.127C269.571 319.437 269.21 319.591 268.781 319.591ZM269.914 321.884V336H267.57V321.884H269.914ZM280.066 336.232C278.744 336.232 277.541 335.931 276.46 335.33C275.395 334.729 274.553 333.879 273.935 332.78C273.334 331.664 273.033 330.376 273.033 328.916C273.033 327.474 273.343 326.203 273.961 325.104C274.596 323.987 275.455 323.137 276.537 322.553C277.619 321.952 278.829 321.652 280.169 321.652C281.508 321.652 282.719 321.952 283.801 322.553C284.883 323.137 285.733 323.979 286.351 325.078C286.987 326.177 287.304 327.456 287.304 328.916C287.304 330.376 286.978 331.664 286.325 332.78C285.69 333.879 284.823 334.729 283.724 335.33C282.625 335.931 281.405 336.232 280.066 336.232ZM280.066 334.171C280.907 334.171 281.697 333.974 282.436 333.579C283.174 333.184 283.767 332.591 284.213 331.801C284.677 331.011 284.909 330.05 284.909 328.916C284.909 327.783 284.685 326.821 284.239 326.031C283.792 325.241 283.209 324.657 282.487 324.279C281.766 323.884 280.985 323.687 280.143 323.687C279.284 323.687 278.495 323.884 277.773 324.279C277.069 324.657 276.502 325.241 276.073 326.031C275.644 326.821 275.429 327.783 275.429 328.916C275.429 330.067 275.635 331.037 276.047 331.827C276.477 332.617 277.043 333.209 277.747 333.604C278.452 333.982 279.224 334.171 280.066 334.171ZM297.264 321.626C298.982 321.626 300.373 322.15 301.437 323.197C302.502 324.228 303.034 325.722 303.034 327.68V336H300.716V328.015C300.716 326.606 300.364 325.533 299.66 324.795C298.956 324.039 297.994 323.661 296.775 323.661C295.538 323.661 294.551 324.048 293.812 324.82C293.091 325.593 292.731 326.718 292.731 328.195V336H290.386V321.884H292.731V323.893C293.194 323.172 293.821 322.614 294.611 322.219C295.418 321.824 296.303 321.626 297.264 321.626ZM318.728 336.232C317.647 336.232 316.676 336.052 315.818 335.691C314.959 335.313 314.281 334.798 313.783 334.145C313.285 333.476 313.01 332.711 312.958 331.853H315.38C315.448 332.557 315.775 333.132 316.359 333.579C316.96 334.025 317.741 334.248 318.703 334.248C319.596 334.248 320.3 334.051 320.815 333.656C321.33 333.261 321.588 332.763 321.588 332.162C321.588 331.544 321.313 331.088 320.763 330.797C320.214 330.487 319.364 330.187 318.213 329.895C317.166 329.62 316.307 329.345 315.637 329.071C314.985 328.779 314.418 328.358 313.937 327.808C313.473 327.242 313.242 326.503 313.242 325.593C313.242 324.872 313.456 324.211 313.886 323.61C314.315 323.009 314.925 322.536 315.715 322.193C316.505 321.832 317.406 321.652 318.419 321.652C319.982 321.652 321.244 322.047 322.206 322.837C323.168 323.627 323.683 324.709 323.752 326.083H321.407C321.356 325.344 321.055 324.752 320.506 324.305C319.973 323.859 319.252 323.635 318.342 323.635C317.501 323.635 316.831 323.816 316.333 324.176C315.835 324.537 315.586 325.009 315.586 325.593C315.586 326.057 315.732 326.443 316.024 326.752C316.333 327.044 316.711 327.285 317.157 327.474C317.621 327.645 318.256 327.843 319.063 328.066C320.077 328.341 320.901 328.616 321.536 328.89C322.172 329.148 322.713 329.543 323.159 330.075C323.623 330.608 323.863 331.303 323.88 332.162C323.88 332.935 323.666 333.63 323.236 334.248C322.807 334.867 322.197 335.356 321.407 335.717C320.635 336.06 319.742 336.232 318.728 336.232ZM335.072 336L329.534 329.766V336H327.189V316.938H329.534V328.143L334.969 321.884H338.24L331.594 328.916L338.266 336H335.072ZM341.657 319.591C341.211 319.591 340.833 319.437 340.524 319.127C340.215 318.818 340.06 318.441 340.06 317.994C340.06 317.548 340.215 317.17 340.524 316.861C340.833 316.551 341.211 316.397 341.657 316.397C342.087 316.397 342.447 316.551 342.739 316.861C343.048 317.17 343.203 317.548 343.203 317.994C343.203 318.441 343.048 318.818 342.739 319.127C342.447 319.437 342.087 319.591 341.657 319.591ZM342.791 321.884V336H340.447V321.884H342.791ZM349.13 316.938V336H346.786V316.938H349.13ZM355.469 316.938V336H353.125V316.938H355.469ZM364.462 336.232C363.38 336.232 362.41 336.052 361.551 335.691C360.692 335.313 360.014 334.798 359.516 334.145C359.018 333.476 358.743 332.711 358.692 331.853H361.113C361.182 332.557 361.508 333.132 362.092 333.579C362.693 334.025 363.474 334.248 364.436 334.248C365.329 334.248 366.033 334.051 366.548 333.656C367.064 333.261 367.321 332.763 367.321 332.162C367.321 331.544 367.046 331.088 366.497 330.797C365.947 330.487 365.097 330.187 363.947 329.895C362.899 329.62 362.04 329.345 361.371 329.071C360.718 328.779 360.151 328.358 359.671 327.808C359.207 327.242 358.975 326.503 358.975 325.593C358.975 324.872 359.19 324.211 359.619 323.61C360.048 323.009 360.658 322.536 361.448 322.193C362.238 321.832 363.139 321.652 364.153 321.652C365.715 321.652 366.978 322.047 367.939 322.837C368.901 323.627 369.416 324.709 369.485 326.083H367.141C367.089 325.344 366.789 324.752 366.239 324.305C365.707 323.859 364.986 323.635 364.075 323.635C363.234 323.635 362.564 323.816 362.066 324.176C361.568 324.537 361.319 325.009 361.319 325.593C361.319 326.057 361.465 326.443 361.757 326.752C362.066 327.044 362.444 327.285 362.89 327.474C363.354 327.645 363.99 327.843 364.797 328.066C365.81 328.341 366.634 328.616 367.27 328.89C367.905 329.148 368.446 329.543 368.892 330.075C369.356 330.608 369.597 331.303 369.614 332.162C369.614 332.935 369.399 333.63 368.97 334.248C368.54 334.867 367.931 335.356 367.141 335.717C366.368 336.06 365.475 336.232 364.462 336.232ZM373.67 336.155C373.223 336.155 372.846 336 372.536 335.691C372.227 335.382 372.073 335.004 372.073 334.557C372.073 334.111 372.227 333.733 372.536 333.424C372.846 333.115 373.223 332.96 373.67 332.96C374.099 332.96 374.46 333.115 374.752 333.424C375.061 333.733 375.215 334.111 375.215 334.557C375.215 335.004 375.061 335.382 374.752 335.691C374.46 336 374.099 336.155 373.67 336.155Z" fill="#F2F2F2"/>
<path d="M169.393 155.426C168.877 153.039 167.974 151.265 166.684 150.104C165.394 148.878 163.555 148.265 161.169 148.265C157.492 148.265 154.847 149.878 153.234 153.103C151.621 156.264 150.783 161.296 150.718 168.198C152.137 165.941 154.169 164.167 156.814 162.876C159.524 161.586 162.491 160.941 165.716 160.941C172.038 160.941 177.102 162.941 180.908 166.94C184.779 170.94 186.714 176.52 186.714 183.68C186.714 188.389 185.746 192.518 183.811 196.066C181.94 199.614 179.166 202.388 175.489 204.387C171.877 206.387 167.587 207.387 162.62 207.387C152.686 207.387 145.783 204.291 141.913 198.098C138.042 191.841 136.107 182.874 136.107 171.198C136.107 158.941 138.139 149.846 142.203 143.911C146.332 137.912 152.912 134.912 161.943 134.912C166.781 134.912 170.845 135.88 174.135 137.815C177.489 139.686 180.005 142.169 181.682 145.266C183.424 148.362 184.456 151.749 184.779 155.426H169.393ZM161.749 174.004C158.975 174.004 156.653 174.843 154.782 176.52C152.976 178.133 152.073 180.455 152.073 183.487C152.073 186.583 152.912 189.002 154.589 190.744C156.33 192.486 158.782 193.357 161.943 193.357C164.781 193.357 167.007 192.518 168.619 190.841C170.296 189.099 171.135 186.744 171.135 183.777C171.135 180.745 170.329 178.358 168.716 176.617C167.103 174.875 164.781 174.004 161.749 174.004ZM250.163 150.781H219.973V164.134C221.263 162.715 223.069 161.554 225.391 160.651C227.714 159.748 230.23 159.296 232.939 159.296C237.777 159.296 241.776 160.393 244.937 162.586C248.163 164.779 250.517 167.618 252.001 171.101C253.485 174.585 254.227 178.358 254.227 182.422C254.227 189.97 252.098 195.969 247.84 200.42C243.583 204.807 237.583 207 229.842 207C224.682 207 220.199 206.129 216.393 204.387C212.587 202.581 209.651 200.098 207.587 196.937C205.523 193.776 204.394 190.131 204.201 186.003H220.36C220.747 188.002 221.682 189.68 223.166 191.034C224.65 192.324 226.682 192.969 229.262 192.969C232.294 192.969 234.552 192.002 236.035 190.067C237.519 188.131 238.261 185.551 238.261 182.326C238.261 179.165 237.487 176.746 235.939 175.068C234.39 173.391 232.133 172.553 229.165 172.553C226.972 172.553 225.166 173.101 223.746 174.198C222.327 175.23 221.392 176.617 220.94 178.358H204.975V136.267H250.163V150.781ZM266.36 154.168C266.36 148.943 267.843 144.911 270.811 142.073C273.843 139.234 277.745 137.815 282.519 137.815C287.292 137.815 291.163 139.234 294.13 142.073C297.098 144.911 298.581 148.943 298.581 154.168C298.581 159.393 297.098 163.425 294.13 166.263C291.163 169.101 287.292 170.521 282.519 170.521C277.745 170.521 273.843 169.101 270.811 166.263C267.843 163.425 266.36 159.393 266.36 154.168ZM332.061 138.879L294.808 207H278.842L316.095 138.879H332.061ZM282.422 147.491C279.326 147.491 277.778 149.717 277.778 154.168C277.778 158.554 279.326 160.748 282.422 160.748C283.906 160.748 285.067 160.199 285.906 159.103C286.744 158.006 287.163 156.361 287.163 154.168C287.163 149.717 285.583 147.491 282.422 147.491ZM312.418 191.712C312.418 186.486 313.902 182.455 316.869 179.616C319.837 176.778 323.707 175.359 328.481 175.359C333.255 175.359 337.125 176.778 340.092 179.616C343.06 182.455 344.543 186.486 344.543 191.712C344.543 196.937 343.06 200.968 340.092 203.807C337.125 206.645 333.255 208.064 328.481 208.064C323.707 208.064 319.837 206.645 316.869 203.807C313.902 200.968 312.418 196.937 312.418 191.712ZM328.384 185.035C326.9 185.035 325.739 185.583 324.901 186.68C324.127 187.777 323.74 189.454 323.74 191.712C323.74 196.098 325.288 198.291 328.384 198.291C329.868 198.291 331.029 197.743 331.868 196.646C332.706 195.55 333.125 193.905 333.125 191.712C333.125 189.518 332.706 187.873 331.868 186.777C331.029 185.616 329.868 185.035 328.384 185.035Z" fill="white"/>
<defs>
<radialGradient id="paint0_angular_1411_3157" cx="0" cy="0" r="1" gradientUnits="userSpaceOnUse" gradientTransform="translate(239.184 238) rotate(-92.1) scale(220.937 220.42)">
<stop stop-color="#9B2552"/>
<stop offset="0.31" stop-color="#2E9D86"/>
<stop offset="0.61" stop-color="#8978B5"/>
<stop offset="0.83" stop-color="#5292B2"/>
<stop offset="0.992364" stop-color="#219EBC"/>
</radialGradient>
</defs>
</svg>
